<svg width="108" height="100" viewBox="0 0 108 100" fill="none" xmlns="http://www.w3.org/2000/svg">
<path d="M93.7939 22.4086V26.631C92.1011 26.6332 90.4246 26.3064 88.8607 25.6695C87.2969 25.0326 85.8766 24.098 84.6816 22.9196L87.7183 19.9351C88.5153 20.7204 89.4623 21.3433 90.5049 21.7678C91.5476 22.1922 92.6653 22.41 93.7939 22.4086Z" fill="#EADF53"/>
<path d="M102.91 22.9218C101.713 24.0995 100.292 25.0334 98.7276 25.6699C97.1632 26.3064 95.4862 26.633 93.793 26.631V22.4086C94.9219 22.4102 96.04 22.1926 97.0831 21.7681C98.1261 21.3436 99.0735 20.7206 99.8707 19.9351L102.91 22.9218Z" fill="#EDB740"/>
<path d="M17.5599 66.8281C20.7686 66.8232 23.9067 67.7539 26.5771 69.5025C29.2475 71.251 31.3301 73.7388 32.5614 76.651C33.7928 79.5633 34.1175 82.7691 33.4945 85.8627C32.8715 88.9564 31.3287 91.7989 29.0615 94.0306C26.7943 96.2622 23.9045 97.7827 20.7577 98.3996C17.611 99.0166 14.3488 98.7022 11.3839 97.4963C8.41899 96.2904 5.88468 94.2473 4.10164 91.6253C2.3186 89.0033 1.36698 85.9205 1.36719 82.7668C1.36558 80.6753 1.78314 78.6039 2.59603 76.6709C3.40892 74.738 4.60123 72.9814 6.10487 71.5013C7.60851 70.0213 9.39403 68.8468 11.3595 68.045C13.325 67.2432 15.4319 66.8297 17.5599 66.8281Z" fill="#EE8E15"/>
<path d="M102.912 5.00537C104.111 6.18034 105.062 7.57664 105.71 9.11398C106.358 10.6513 106.69 12.2994 106.688 13.9635H102.39C102.391 12.8543 102.169 11.7558 101.737 10.7311C101.306 9.70632 100.672 8.77552 99.873 7.99212L102.912 5.00537Z" fill="#EDB740"/>
<path d="M53.8262 71.2827H64.7859V98.7069H53.8262V71.2827Z" fill="#BFDBFF"/>
<path d="M70.9668 64.4956H81.9287V98.7062H70.9668V64.4956Z" fill="#BFDBFF"/>
<path d="M64.6961 27.2798V33.6954C64.6961 35.2282 64.0766 36.6982 62.9738 37.782C61.871 38.8659 60.3754 39.4748 58.8158 39.4748C57.2563 39.4748 55.7606 38.8659 54.6578 37.782C53.5551 36.6982 52.9355 35.2282 52.9355 33.6954V31.1636H54.7238C55.0798 31.1638 55.4323 31.0951 55.7613 30.9613C56.0903 30.8276 56.3892 30.6315 56.6411 30.3842C56.8929 30.1368 57.0927 29.8432 57.2291 29.5199C57.3654 29.1967 57.4356 28.8503 57.4357 28.5004C57.4355 28.3402 57.4673 28.1815 57.5295 28.0335C57.5917 27.8854 57.683 27.7508 57.7981 27.6375C57.9132 27.5241 58.05 27.4342 58.2005 27.3728C58.3511 27.3114 58.5124 27.2798 58.6754 27.2798H64.6961Z" fill="#FFD8B7"/>
<path d="M93.7941 1.29395V5.51637C92.6652 5.5147 91.5471 5.73237 90.504 6.15686C89.461 6.58136 88.5136 7.2043 87.7164 7.98987L84.6797 5.00528C85.8753 3.82708 87.296 2.89269 88.8601 2.25578C90.4243 1.61887 92.1011 1.292 93.7941 1.29395Z" fill="#EDB740"/>
<path d="M88.3125 48.5747H99.2722V98.7067H88.3125V48.5747Z" fill="#BFDBFF"/>
<path d="M70.9668 44.1499H81.9287V64.4964H70.9668V44.1499Z" fill="#3F4B7D"/>
<path d="M102.91 5.00528L99.8707 7.99203C99.0738 7.20581 98.1266 6.58231 97.0835 6.15743C96.0404 5.73255 94.9221 5.51468 93.793 5.51637V1.29395C95.4864 1.29205 97.1635 1.61893 98.728 2.25583C100.292 2.89273 101.714 3.82709 102.91 5.00528Z" fill="#EADF53"/>
<path d="M88.3125 30.3413H99.2722V48.5745H88.3125V30.3413Z" fill="#3F4B7D"/>
<path d="M84.6804 5.00537L87.7171 7.98996C86.9184 8.77395 86.285 9.70516 85.8531 10.7302C85.4212 11.7553 85.1994 12.854 85.2004 13.9635H80.9043C80.9021 12.2994 81.2346 10.6513 81.8826 9.11398C82.5307 7.57664 83.4815 6.18034 84.6804 5.00537Z" fill="#EADF53"/>
<path d="M53.8262 56.1768H64.7859V71.283H53.8262V56.1768Z" fill="#3F4B7D"/>
<path d="M106.688 13.9629C106.688 14.0944 106.686 14.2281 106.681 14.3597C106.582 17.5816 105.234 20.6443 102.912 22.921L99.873 19.9342C100.672 19.1511 101.306 18.2203 101.738 17.1955C102.17 16.1707 102.391 15.0721 102.39 13.9629H106.688Z" fill="#EADF53"/>
<path d="M36.6836 70.2075H47.6455V81.5658H36.6836V70.2075Z" fill="#3F4B7D"/>
<path d="M66.8952 47.0942V52.1598H50.7266V47.0942C50.7265 46.4123 50.8632 45.737 51.1287 45.107C51.3942 44.4769 51.7834 43.9045 52.274 43.4222C52.7646 42.94 53.3471 42.5575 53.9881 42.2966C54.6291 42.0356 55.3162 41.9013 56.01 41.9014H61.6139C62.3076 41.9014 62.9945 42.0357 63.6354 42.2967C64.2763 42.5577 64.8586 42.9402 65.3491 43.4224C65.8395 43.9047 66.2285 44.4771 66.4938 45.1072C66.759 45.7372 66.8954 46.4124 66.8952 47.0942Z" fill="#BFDBFF"/>
<path d="M48.1675 33.309L37.3043 41.6805V37.0699H25.5547V29.4855H37.3043V24.9375L48.1675 33.309Z" fill="#BFDBFF"/>
<path d="M87.7193 19.9342L84.6826 22.9188C83.4828 21.7448 82.5313 20.349 81.8828 18.812C81.2344 17.2749 80.9018 15.6269 80.9043 13.9629H85.2004C85.1989 15.0723 85.4207 16.171 85.853 17.1958C86.2853 18.2207 86.9196 19.1513 87.7193 19.9342Z" fill="#EDB740"/>
<path d="M36.9524 11.749L26.0914 20.1205V15.5099H14.3418V7.92549H26.0914V3.37744L36.9524 11.749Z" fill="#E87187"/>
<path d="M37.8413 54.8818L26.9781 63.2533V58.6427H15.2285V51.0583H26.9781V46.5103L37.8413 54.8818Z" fill="#F3CE7D"/>
<path d="M64.6961 27.7105H58.6754C58.5124 27.7105 58.3511 27.7421 58.2005 27.8035C58.05 27.8649 57.9132 27.9548 57.7981 28.0682C57.683 28.1816 57.5917 28.3161 57.5295 28.4642C57.4673 28.6122 57.4355 28.7709 57.4357 28.9311C57.4356 29.281 57.3654 29.6274 57.2291 29.9507C57.0927 30.2739 56.8929 30.5676 56.6411 30.8149C56.3892 31.0622 56.0903 31.2583 55.7613 31.3921C55.4323 31.5258 55.0798 31.5945 54.7238 31.5943H52.9355V29.4228C52.9361 27.8903 53.5559 26.4209 54.6586 25.3375C55.7613 24.2541 57.2567 23.6455 58.8158 23.6455C59.4685 23.6903 60.1127 23.8156 60.7335 24.0186C61.2156 24.1637 61.7169 24.2379 62.2211 24.2385C63.1578 24.2394 64.0558 24.6055 64.7181 25.2564C65.3804 25.9073 65.7528 26.7899 65.7537 27.7105H64.6961Z" fill="#6D7486"/>
<path d="M87.663 7.93957C89.0803 6.54668 90.9452 5.67986 92.9399 5.4868C94.9346 5.29375 96.9357 5.78639 98.6023 6.88081C100.269 7.97522 101.498 9.6037 102.08 11.4888C102.662 13.3739 102.561 15.399 101.794 17.2191C101.027 19.0392 99.6418 20.5416 97.8742 21.4705C96.1067 22.3994 94.0661 22.6972 92.1002 22.3132C90.1343 21.9292 88.3647 20.8872 87.0928 19.3647C85.8209 17.8421 85.1255 15.9333 85.125 13.9633C85.1233 12.8444 85.3466 11.7362 85.7822 10.7024C86.2177 9.66867 86.8569 8.72971 87.663 7.93957Z" fill="#D8A43D"/>
<path d="M29.6665 82.7339C29.6665 85.9233 28.3774 88.9821 26.0828 91.2373C23.7882 93.4926 20.676 94.7596 17.4309 94.7596C14.1858 94.7596 11.0737 93.4926 8.77904 91.2373C6.48442 88.9821 5.19531 85.9233 5.19531 82.7339V82.6907C5.19531 79.5013 6.48442 76.4425 8.77904 74.1873C11.0737 71.932 14.1858 70.665 17.4309 70.665C20.676 70.665 23.7882 71.932 26.0828 74.1873C28.3774 76.4425 29.6665 79.5013 29.6665 82.6907V82.7339Z" fill="#EE8E15"/>
<path d="M17.6101 81.3223C17.9176 81.3221 18.2183 81.4115 18.4742 81.5793C18.73 81.7471 18.9294 81.9857 19.0472 82.265C19.165 82.5442 19.1959 82.8515 19.1359 83.148C19.076 83.4444 18.9279 83.7168 18.7104 83.9305C18.4929 84.1443 18.2158 84.2898 17.9142 84.3487C17.6125 84.4076 17.2999 84.3773 17.0158 84.2615C16.7317 84.1457 16.4889 83.9497 16.3182 83.6983C16.1474 83.4469 16.0564 83.1513 16.0566 82.8491C16.0566 82.6486 16.0967 82.45 16.1748 82.2647C16.2528 82.0795 16.3672 81.9111 16.5115 81.7693C16.6558 81.6275 16.827 81.5151 17.0155 81.4384C17.204 81.3617 17.4061 81.3222 17.6101 81.3223Z" fill="#D4E1F4"/>
<path d="M36.6934 70.2715H42.3981V81.4853H36.6934V70.2715Z" fill="#3F4B7D"/>
<path d="M90.8318 13.9633C90.8315 12.1952 91.3912 10.4709 92.4331 9.02951C93.475 7.58815 94.9475 6.50124 96.6463 5.91957C95.3403 5.47257 93.9444 5.33926 92.5753 5.53078C91.2062 5.72231 89.9036 6.23311 88.7764 7.0205C87.6491 7.80789 86.73 8.84901 86.0958 10.0568C85.4616 11.2647 85.1307 12.6042 85.1309 13.9633C85.131 15.3225 85.4621 16.662 86.0965 17.8697C86.7309 19.0774 87.6501 20.1184 88.7775 20.9056C89.9049 21.6928 91.2075 22.2034 92.5767 22.3947C93.9458 22.586 95.3417 22.4525 96.6476 22.0053C94.9496 21.423 93.4778 20.3362 92.436 18.8954C91.3943 17.4546 90.8341 15.7311 90.8331 13.9635L90.8318 13.9633Z" fill="#AD8642"/>
<path d="M36.6836 81.564H47.6455V98.7059H36.6836V81.564Z" fill="#BFDBFF"/>
<path d="M36.6934 81.4854H42.3981V98.7373H36.6934V81.4854Z" fill="#BFDBFF"/>
<path d="M17.5588 65.5332C14.0899 65.5284 10.6974 66.535 7.81069 68.4257C4.92398 70.3164 2.67274 73.0061 1.34183 76.1547C0.0109217 79.3032 -0.33985 82.769 0.333901 86.1135C1.00765 89.458 2.67565 92.5309 5.12683 94.9435C7.57801 97.356 10.7022 98.9998 14.1042 99.6667C17.5061 100.334 21.0329 99.9938 24.2382 98.6901C27.4436 97.3865 30.1835 95.1777 32.1113 92.3432C34.039 89.5087 35.068 86.1759 35.068 82.7664C35.0661 78.2007 33.2216 73.8221 29.9391 70.5914C26.6566 67.3606 22.2042 65.5416 17.5588 65.5332ZM17.5588 97.4118C14.6106 97.4166 11.7272 96.5618 9.27349 94.9555C6.81976 93.3492 4.906 91.0635 3.77437 88.3879C2.64275 85.7122 2.34412 82.7667 2.91627 79.9242C3.48843 77.0817 4.90566 74.4698 6.98862 72.4192C9.07157 70.3686 11.7266 68.9713 14.6178 68.4042C17.509 67.8372 20.5064 68.1258 23.2306 69.2335C25.9549 70.3413 28.2836 72.2184 29.922 74.6273C31.5605 77.0363 32.435 79.8688 32.4351 82.7664C32.434 86.6461 30.8671 90.3669 28.0782 93.1125C25.2893 95.8581 21.5062 97.4043 17.5588 97.4118Z" fill="#3F4B7D"/>
<path d="M22.8261 81.5536H20.1517C19.8862 81.0492 19.4727 80.6348 18.9649 80.3639V76.5195C18.9649 76.1763 18.8262 75.8472 18.5793 75.6046C18.3324 75.3619 17.9976 75.2256 17.6484 75.2256C17.2993 75.2256 16.9644 75.3619 16.7175 75.6046C16.4706 75.8472 16.3319 76.1763 16.3319 76.5195V80.3231C15.9253 80.5206 15.5722 80.81 15.3014 81.1676C15.0307 81.5252 14.8501 81.9408 14.7745 82.3804C14.6989 82.8199 14.7304 83.2708 14.8665 83.696C15.0026 84.1212 15.2393 84.5086 15.5573 84.8265C15.8753 85.1443 16.2654 85.3835 16.6957 85.5244C17.126 85.6654 17.5841 85.704 18.0325 85.6371C18.4809 85.5702 18.9068 85.3998 19.2752 85.1398C19.6436 84.8798 19.944 84.5376 20.1517 84.1414H22.8261C23.1753 84.1414 23.5102 84.0051 23.757 83.7624C24.0039 83.5198 24.1426 83.1907 24.1426 82.8475C24.1426 82.5043 24.0039 82.1752 23.757 81.9326C23.5102 81.6899 23.1753 81.5536 22.8261 81.5536ZM17.6054 83.0813C17.5583 83.0817 17.5121 83.0683 17.4727 83.0429C17.4333 83.0175 17.4025 82.9811 17.3841 82.9385C17.3658 82.8958 17.3608 82.8487 17.3697 82.8032C17.3786 82.7577 17.4011 82.7159 17.4343 82.683C17.4674 82.6501 17.5098 82.6276 17.556 82.6184C17.6022 82.6092 17.6501 82.6137 17.6937 82.6313C17.7373 82.649 17.7746 82.6789 17.8008 82.7174C17.8271 82.7559 17.8411 82.8012 17.8411 82.8475C17.8413 82.9092 17.8166 82.9685 17.7724 83.0123C17.7283 83.0561 17.6682 83.0809 17.6054 83.0813Z" fill="#3F4B7D"/>
<path d="M8.96297 9.21865H10.3233C10.6725 9.21865 11.0073 9.08233 11.2542 8.83968C11.5011 8.59703 11.6398 8.26792 11.6398 7.92476C11.6398 7.58159 11.5011 7.25249 11.2542 7.00983C11.0073 6.76718 10.6725 6.63086 10.3233 6.63086H8.96297C8.61381 6.63086 8.27896 6.76718 8.03207 7.00983C7.78518 7.25249 7.64648 7.58159 7.64648 7.92476C7.64648 8.26792 7.78518 8.59703 8.03207 8.83968C8.27896 9.08233 8.61381 9.21865 8.96297 9.21865Z" fill="#3F4B7D"/>
<path d="M25.5129 21.2829C25.7349 21.3891 25.9828 21.4318 26.2283 21.4061C26.4739 21.3804 26.7071 21.2873 26.9013 21.1376L37.7634 12.7665C37.9205 12.6454 38.0476 12.4909 38.1349 12.3144C38.2223 12.138 38.2677 11.9444 38.2677 11.7482C38.2677 11.552 38.2223 11.3583 38.1349 11.1819C38.0476 11.0055 37.9205 10.8509 37.7634 10.7299L26.9024 2.35881C26.7081 2.20922 26.475 2.11632 26.2296 2.09072C25.9841 2.06512 25.7363 2.10785 25.5144 2.21402C25.2925 2.3202 25.1054 2.48555 24.9745 2.6912C24.8436 2.89685 24.7742 3.13453 24.7741 3.3771V6.63039H14.3399C13.9908 6.63039 13.6559 6.76671 13.409 7.00937C13.1621 7.25202 13.0234 7.58113 13.0234 7.92429V15.5083C13.0234 15.8514 13.1621 16.1805 13.409 16.4232C13.6559 16.6658 13.9908 16.8021 14.3399 16.8021H24.7726V20.1195C24.7726 20.3621 24.842 20.5999 24.9729 20.8056C25.1038 21.0113 25.2909 21.1767 25.5129 21.2829ZM15.6564 14.2144V9.21819H26.0891C26.4382 9.21819 26.7731 9.08186 27.02 8.83921C27.2669 8.59656 27.4056 8.26745 27.4056 7.92429V6.03585L34.8176 11.7482L27.4056 17.4605V15.5083C27.4056 15.1651 27.2669 14.836 27.02 14.5933C26.7731 14.3507 26.4382 14.2144 26.0891 14.2144H15.6564Z" fill="#3F4B7D"/>
<path d="M8.96297 16.848H10.3233C10.6725 16.848 11.0073 16.7117 11.2542 16.4691C11.5011 16.2264 11.6398 15.8973 11.6398 15.5542C11.6398 15.211 11.5011 14.8819 11.2542 14.6392C11.0073 14.3966 10.6725 14.2603 10.3233 14.2603H8.96297C8.61381 14.2603 8.27896 14.3966 8.03207 14.6392C7.78518 14.8819 7.64648 15.211 7.64648 15.5542C7.64648 15.8973 7.78518 16.2264 8.03207 16.4691C8.27896 16.7117 8.61381 16.848 8.96297 16.848Z" fill="#3F4B7D"/>
<path d="M3.78523 9.21865H5.1456C5.49475 9.21865 5.8296 9.08233 6.07649 8.83968C6.32338 8.59703 6.46208 8.26792 6.46208 7.92476C6.46208 7.58159 6.32338 7.25249 6.07649 7.00983C5.8296 6.76718 5.49475 6.63086 5.1456 6.63086H3.78523C3.43608 6.63086 3.10123 6.76718 2.85434 7.00983C2.60745 7.25249 2.46875 7.58159 2.46875 7.92476C2.46875 8.26792 2.60745 8.59703 2.85434 8.83968C3.10123 9.08233 3.43608 9.21865 3.78523 9.21865Z" fill="#3F4B7D"/>
<path d="M3.78523 16.848H5.1456C5.49475 16.848 5.8296 16.7117 6.07649 16.4691C6.32338 16.2264 6.46208 15.8973 6.46208 15.5542C6.46208 15.211 6.32338 14.8819 6.07649 14.6392C5.8296 14.3966 5.49475 14.2603 5.1456 14.2603H3.78523C3.43608 14.2603 3.10123 14.3966 2.85434 14.6392C2.60745 14.8819 2.46875 15.211 2.46875 15.5542C2.46875 15.8973 2.60745 16.2264 2.85434 16.4691C3.10123 16.7117 3.43608 16.848 3.78523 16.848Z" fill="#3F4B7D"/>
<path d="M21.5382 28.1909H20.1778C19.8287 28.1909 19.4938 28.3272 19.2469 28.5699C19 28.8125 18.8613 29.1417 18.8613 29.4848C18.8613 29.828 19 30.1571 19.2469 30.3997C19.4938 30.6424 19.8287 30.7787 20.1778 30.7787H21.5382C21.8873 30.7787 22.2222 30.6424 22.4691 30.3997C22.716 30.1571 22.8547 29.828 22.8547 29.4848C22.8547 29.1417 22.716 28.8125 22.4691 28.5699C22.2222 28.3272 21.8873 28.1909 21.5382 28.1909Z" fill="#3F4B7D"/>
<path d="M48.9763 32.29L38.1153 23.9189C37.921 23.7693 37.6879 23.6764 37.4424 23.6508C37.197 23.6252 36.9492 23.6679 36.7273 23.7741C36.5054 23.8803 36.3183 24.0456 36.1874 24.2513C36.0565 24.4569 35.9871 24.6946 35.987 24.9372V28.1905H25.5528C25.2037 28.1905 24.8688 28.3268 24.6219 28.5694C24.375 28.8121 24.2363 29.1412 24.2363 29.4843V37.0683C24.2363 37.4115 24.375 37.7406 24.6219 37.9832C24.8688 38.2259 25.2037 38.3622 25.5528 38.3622H35.9855V41.6793C35.9855 41.9219 36.055 42.1596 36.1859 42.3652C36.3168 42.5709 36.5038 42.7362 36.7257 42.8424C36.9477 42.9486 37.1955 42.9913 37.4409 42.9657C37.6863 42.9401 37.9195 42.8472 38.1138 42.6976L48.9759 34.3263C49.1329 34.2053 49.2599 34.0507 49.3473 33.8743C49.4346 33.6979 49.48 33.5043 49.48 33.3081C49.48 33.112 49.4346 32.9184 49.3473 32.742C49.2599 32.5656 49.1329 32.411 48.9759 32.29H48.9763ZM38.6184 39.0206V37.0683C38.6184 36.7251 38.4798 36.396 38.2329 36.1534C37.986 35.9107 37.6511 35.7744 37.302 35.7744H26.8693V30.7782H37.302C37.6511 30.7782 37.986 30.6419 38.2329 30.3993C38.4798 30.1566 38.6184 29.8275 38.6184 29.4843V27.5959L46.0307 33.3078L38.6184 39.0206Z" fill="#3F4B7D"/>
<path d="M21.5382 38.4091C21.8873 38.4091 22.2222 38.2728 22.4691 38.0301C22.716 37.7875 22.8547 37.4583 22.8547 37.1152C22.8547 36.772 22.716 36.4429 22.4691 36.2003C22.2222 35.9576 21.8873 35.8213 21.5382 35.8213H20.1778C19.8287 35.8213 19.4938 35.9576 19.2469 36.2003C19 36.4429 18.8613 36.772 18.8613 37.1152C18.8613 37.4583 19 37.7875 19.2469 38.0301C19.4938 38.2728 19.8287 38.4091 20.1778 38.4091H21.5382Z" fill="#3F4B7D"/>
<path d="M14.9981 30.7787H16.3585C16.7076 30.7787 17.0425 30.6424 17.2894 30.3997C17.5363 30.1571 17.675 29.828 17.675 29.4848C17.675 29.1417 17.5363 28.8125 17.2894 28.5699C17.0425 28.3272 16.7076 28.1909 16.3585 28.1909H14.9981C14.649 28.1909 14.3141 28.3272 14.0672 28.5699C13.8203 28.8125 13.6816 29.1417 13.6816 29.4848C13.6816 29.828 13.8203 30.1571 14.0672 30.3997C14.3141 30.6424 14.649 30.7787 14.9981 30.7787Z" fill="#3F4B7D"/>
<path d="M14.9981 38.4091H16.3585C16.7076 38.4091 17.0425 38.2728 17.2894 38.0301C17.5363 37.7875 17.675 37.4583 17.675 37.1152C17.675 36.772 17.5363 36.4429 17.2894 36.2003C17.0425 35.9576 16.7076 35.8213 16.3585 35.8213H14.9981C14.649 35.8213 14.3141 35.9576 14.0672 36.2003C13.8203 36.4429 13.6816 36.772 13.6816 37.1152C13.6816 37.4583 13.8203 37.7875 14.0672 38.0301C14.3141 38.2728 14.649 38.4091 14.9981 38.4091Z" fill="#3F4B7D"/>
<path d="M11.214 49.7529H9.85359C9.50444 49.7529 9.16959 49.8892 8.9227 50.1319C8.67581 50.3746 8.53711 50.7037 8.53711 51.0468C8.53711 51.39 8.67581 51.7191 8.9227 51.9617C9.16959 52.2044 9.50444 52.3407 9.85359 52.3407H11.214C11.5631 52.3407 11.898 52.2044 12.1448 51.9617C12.3917 51.7191 12.5304 51.39 12.5304 51.0468C12.5304 50.7037 12.3917 50.3746 12.1448 50.1319C11.898 49.8892 11.5631 49.7529 11.214 49.7529Z" fill="#3F4B7D"/>
<path d="M11.214 57.3823H9.85359C9.50444 57.3823 9.16959 57.5186 8.9227 57.7613C8.67581 58.0039 8.53711 58.3331 8.53711 58.6762C8.53711 59.0194 8.67581 59.3485 8.9227 59.5911C9.16959 59.8338 9.50444 59.9701 9.85359 59.9701H11.214C11.5631 59.9701 11.898 59.8338 12.1448 59.5911C12.3917 59.3485 12.5304 59.0194 12.5304 58.6762C12.5304 58.3331 12.3917 58.0039 12.1448 57.7613C11.898 57.5186 11.5631 57.3823 11.214 57.3823Z" fill="#3F4B7D"/>
<path d="M6.03622 49.7529H4.67586C4.3267 49.7529 3.99185 49.8892 3.74496 50.1319C3.49808 50.3746 3.35938 50.7037 3.35938 51.0468C3.35938 51.39 3.49808 51.7191 3.74496 51.9617C3.99185 52.2044 4.3267 52.3407 4.67586 52.3407H6.03622C6.38537 52.3407 6.72023 52.2044 6.96711 51.9617C7.214 51.7191 7.3527 51.39 7.3527 51.0468C7.3527 50.7037 7.214 50.3746 6.96711 50.1319C6.72023 49.8892 6.38537 49.7529 6.03622 49.7529Z" fill="#3F4B7D"/>
<path d="M6.03622 57.3823H4.67586C4.3267 57.3823 3.99185 57.5186 3.74496 57.7613C3.49808 58.0039 3.35938 58.3331 3.35938 58.6762C3.35938 59.0194 3.49808 59.3485 3.74496 59.5911C3.99185 59.8338 4.3267 59.9701 4.67586 59.9701H6.03622C6.38537 59.9701 6.72023 59.8338 6.96711 59.5911C7.214 59.3485 7.3527 59.0194 7.3527 58.6762C7.3527 58.3331 7.214 58.0039 6.96711 57.7613C6.72023 57.5186 6.38537 57.3823 6.03622 57.3823Z" fill="#3F4B7D"/>
<path d="M47.644 68.9116H36.6837C36.3345 68.9116 35.9997 69.0479 35.7528 69.2906C35.5059 69.5332 35.3672 69.8624 35.3672 70.2055V98.7051C35.3672 99.0483 35.5059 99.3774 35.7528 99.62C35.9997 99.8627 36.3345 99.999 36.6837 99.999H47.644C47.9932 99.999 48.328 99.8627 48.5749 99.62C48.8218 99.3774 48.9605 99.0483 48.9605 98.7051V70.2055C48.9605 69.8624 48.8218 69.5332 48.5749 69.2906C48.328 69.0479 47.9932 68.9116 47.644 68.9116ZM46.3276 97.4106H38.0002V82.8572H46.3276V97.4106ZM46.3276 80.2688H38.0002V71.4994H46.3276V80.2688Z" fill="#3F4B7D"/>
<path d="M64.7866 54.8818H53.8262C53.4771 54.8818 53.1422 55.0182 52.8954 55.2608C52.6485 55.5035 52.5098 55.8326 52.5098 56.1757V98.7059C52.5098 99.0491 52.6485 99.3782 52.8954 99.6208C53.1422 99.8635 53.4771 99.9998 53.8262 99.9998H64.7866C65.1358 99.9998 65.4706 99.8635 65.7175 99.6208C65.9644 99.3782 66.1031 99.0491 66.1031 98.7059V56.1757C66.1031 55.8326 65.9644 55.5035 65.7175 55.2608C65.4706 55.0182 65.1358 54.8818 64.7866 54.8818ZM63.4701 97.412H55.1427V72.5759H63.4701V97.412ZM63.4701 69.9881H55.1427V57.4696H63.4701V69.9881Z" fill="#3F4B7D"/>
<path d="M81.9275 42.855H70.9669C70.6177 42.855 70.2829 42.9913 70.036 43.234C69.7891 43.4766 69.6504 43.8057 69.6504 44.1489V98.706C69.6504 99.0492 69.7891 99.3783 70.036 99.621C70.2829 99.8636 70.6177 99.9999 70.9669 99.9999H81.9275C82.2766 99.9999 82.6115 99.8636 82.8583 99.621C83.1052 99.3783 83.2439 99.0492 83.2439 98.706V44.1489C83.2439 43.8057 83.1052 43.4766 82.8583 43.234C82.6115 42.9913 82.2766 42.855 81.9275 42.855ZM80.611 97.4121H72.2834V65.79H80.611V97.4121ZM80.611 63.2022H72.2834V45.4428H80.611V63.2022Z" fill="#3F4B7D"/>
<path d="M93.7926 0C91.0021 0.000542298 88.2736 0.808845 85.9476 2.32402C83.6215 3.83919 81.8011 5.99413 80.7134 8.51984C79.6258 11.0456 79.319 13.8302 79.8316 16.5262C80.3441 19.2221 81.6532 21.71 83.5954 23.6793C85.5376 25.6486 88.0269 27.0121 90.7527 27.5996C93.4784 28.187 96.3198 27.9724 98.9223 26.9826C101.525 25.9928 103.773 24.2715 105.386 22.0337C106.999 19.7959 107.906 17.1406 107.994 14.3994C107.998 14.2541 108.001 14.1085 108.001 13.9624C107.996 10.2604 106.498 6.7113 103.834 4.09374C101.171 1.47618 97.5593 0.00393785 93.7926 0ZM95.1091 2.66349C97.2589 2.9044 99.2963 3.73571 100.988 5.06216L99.8028 6.22666C98.4351 5.19625 96.8166 4.53614 95.1084 4.31213L95.1091 2.66349ZM92.4761 2.66349V4.31127C90.768 4.53523 89.1494 5.19535 87.7818 6.2258L86.5969 5.06129C88.2886 3.73516 90.3261 2.90416 92.4761 2.66349ZM84.7354 21.0329C83.3856 19.3711 82.5396 17.3691 82.2944 15.2563H83.9716C84.1997 16.9348 84.8713 18.5252 85.9196 19.8691L84.7354 21.0329ZM83.9716 12.6685H82.2944C82.5397 10.5557 83.3857 8.55353 84.7354 6.89151L85.9203 8.05602C84.8718 9.39976 84.1999 10.9901 83.9716 12.6685ZM92.4761 25.2625C90.3262 25.0215 88.2888 24.1902 86.5974 22.8638L87.7822 21.6993C89.1501 22.7299 90.7691 23.3901 92.4777 23.6138L92.4761 25.2625ZM95.1091 25.2625V23.6145C96.8176 23.3907 98.4366 22.7306 99.8045 21.7L100.995 22.8696C99.3015 24.1964 97.2611 25.0255 95.1091 25.2614V25.2625ZM93.7926 21.1153C92.3535 21.1151 90.9467 20.6954 89.7503 19.9094C88.5538 19.1234 87.6214 18.0063 87.0708 16.6995C86.5203 15.3927 86.3763 13.9547 86.6573 12.5675C86.9382 11.1803 87.6313 9.90605 88.649 8.90598C89.6667 7.90591 90.9633 7.2249 92.3748 6.94905C93.7863 6.6732 95.2493 6.8149 96.5789 7.35625C97.9084 7.89759 99.0448 8.81425 99.8443 9.99033C100.644 11.1664 101.071 12.5491 101.071 13.9635C101.068 15.8597 100.301 17.6775 98.9361 19.0181C97.5717 20.3587 95.7219 21.1125 93.7926 21.1142V21.1153ZM102.854 21.0383L101.666 19.8702C102.714 18.5259 103.385 16.9351 103.612 15.2563H105.29C105.049 17.3709 104.205 19.3754 102.854 21.0381L102.854 21.0383ZM103.612 12.6685C103.385 10.9902 102.713 9.39982 101.665 8.05602L102.85 6.89151C104.2 8.55348 105.046 10.5556 105.291 12.6683L103.612 12.6685Z" fill="#3F4B7D"/>
<path d="M93.7633 12.693C93.714 12.6978 93.6643 12.6925 93.6172 12.6772C93.5702 12.662 93.5269 12.6373 93.4902 12.6046C93.4534 12.5719 93.4241 12.532 93.404 12.4875C93.3839 12.443 93.3735 12.3949 93.3735 12.3462C93.3735 12.2975 93.3839 12.2494 93.404 12.2049C93.4241 12.1604 93.4534 12.1205 93.4902 12.0878C93.5269 12.0552 93.5702 12.0304 93.6172 12.0152C93.6643 12 93.714 11.9946 93.7633 11.9995C93.8246 11.9985 93.8852 12.0113 93.9406 12.037C93.996 12.0627 94.0446 12.1005 94.0828 12.1476C94.2987 12.4149 94.6133 12.5875 94.958 12.6279C95.3028 12.6683 95.6499 12.5732 95.9237 12.3633C96.1974 12.1534 96.3757 11.8457 96.4197 11.5071C96.4638 11.1686 96.3699 10.8267 96.1587 10.5559C95.8662 10.1868 95.4888 9.89115 95.0574 9.69329C95.0025 9.39487 94.8425 9.12493 94.6055 8.93071C94.3686 8.73649 94.0696 8.63035 93.7611 8.63086C93.4525 8.63138 93.1539 8.73851 92.9176 8.93352C92.6813 9.12853 92.5223 9.399 92.4684 9.69761C91.8483 9.97876 91.3455 10.4608 91.0441 11.063C90.7427 11.6652 90.661 12.3509 90.8128 13.0052C90.9645 13.6595 91.3405 14.2427 91.8777 14.657C92.4149 15.0713 93.0806 15.2915 93.7633 15.2808C93.8127 15.2758 93.8626 15.281 93.9098 15.2962C93.9569 15.3113 94.0003 15.336 94.0372 15.3687C94.074 15.4014 94.1035 15.4413 94.1236 15.4859C94.1438 15.5304 94.1542 15.5787 94.1542 15.6274C94.1542 15.6762 94.1438 15.7244 94.1236 15.769C94.1035 15.8136 94.074 15.8535 94.0372 15.8862C94.0003 15.9188 93.9569 15.9435 93.9098 15.9587C93.8626 15.9738 93.8127 15.9791 93.7633 15.9741C93.702 15.975 93.6413 15.9621 93.5859 15.9364C93.5304 15.9107 93.4817 15.8728 93.4434 15.8257C93.3375 15.6904 93.2055 15.577 93.0548 15.492C92.9041 15.4071 92.7378 15.3523 92.5655 15.3308C92.3931 15.3093 92.2182 15.3215 92.0507 15.3668C91.8832 15.4121 91.7265 15.4895 91.5896 15.5946C91.4527 15.6996 91.3382 15.8303 91.2529 15.979C91.1676 16.1278 91.1131 16.2916 91.0926 16.4611C91.072 16.6307 91.0858 16.8025 91.1331 16.9668C91.1804 17.1311 91.2603 17.2845 91.3682 17.4183C91.6631 17.7896 92.044 18.0863 92.4791 18.2837C92.545 18.5705 92.7082 18.8267 92.942 19.0102C93.1759 19.1936 93.4663 19.2933 93.7654 19.2928C94.0646 19.2923 94.3547 19.1917 94.5879 19.0076C94.8211 18.8234 94.9835 18.5666 95.0484 18.2796C95.6697 17.9999 96.1742 17.5188 96.4773 16.9168C96.7803 16.3148 96.8635 15.6288 96.7128 14.9737C96.5621 14.3186 96.1867 13.7344 95.6497 13.3191C95.1126 12.9038 94.4466 12.6828 93.7633 12.693Z" fill="#3F4B7D"/>
<path d="M99.2732 29.0479H88.3126C87.9634 29.0479 87.6286 29.1842 87.3817 29.4268C87.1348 29.6695 86.9961 29.9986 86.9961 30.3417V98.7061C86.9961 99.0493 87.1348 99.3784 87.3817 99.621C87.6286 99.8637 87.9634 100 88.3126 100H99.2732C99.6223 100 99.9572 99.8637 100.204 99.621C100.451 99.3784 100.59 99.0493 100.59 98.7061V30.3417C100.59 29.9986 100.451 29.6695 100.204 29.4268C99.9572 29.1842 99.6223 29.0479 99.2732 29.0479ZM97.9567 97.4122H89.6291V49.8684H97.9567V97.4122ZM97.9567 47.2806H89.6291V31.6356H97.9567V47.2806Z" fill="#3F4B7D"/>
<path d="M61.6155 40.6068H60.3347C61.9408 40.2633 63.3792 39.3906 64.4114 38.1334C65.4436 36.8762 66.0076 35.31 66.0099 33.6946V28.9798C66.3085 28.9213 66.5773 28.7628 66.7704 28.5314C66.9635 28.3 67.069 28.01 67.069 27.7107C67.0674 26.4472 66.556 25.2359 65.647 24.3424C64.738 23.449 63.5055 22.9464 62.2199 22.9449C61.845 22.9442 61.4722 22.8891 61.1137 22.7814C60.3711 22.5336 59.597 22.3884 58.8138 22.3501C56.9057 22.3521 55.0763 23.098 53.7271 24.424C52.3779 25.7501 51.619 27.5481 51.617 29.4234V33.6948C51.6193 35.3102 52.1833 36.8764 53.2155 38.1336C54.2477 39.3908 55.6861 40.2635 57.2921 40.607H56.0114C54.2618 40.6089 52.5843 41.2928 51.3471 42.5088C50.1099 43.7248 49.414 45.3734 49.4121 47.0931V52.1578C49.4121 52.501 49.5508 52.8301 49.7977 53.0727C50.0446 53.3154 50.3794 53.4517 50.7286 53.4517H66.8978C67.247 53.4517 67.5818 53.3154 67.8287 53.0727C68.0756 52.8301 68.2143 52.501 68.2143 52.1578V47.0929C68.2124 45.3733 67.5166 43.7247 66.2795 42.5087C65.0424 41.2928 63.365 40.6088 61.6155 40.6068ZM54.2504 29.4232C54.2516 28.2339 54.7328 27.0937 55.5885 26.2528C56.4441 25.4118 57.6042 24.9389 58.8142 24.9377C58.9239 24.9377 59.3577 24.9608 60.3501 25.2566C60.9566 25.4383 61.587 25.531 62.221 25.5316C62.5677 25.5315 62.9096 25.6114 63.2191 25.765C63.5286 25.9186 63.7971 26.1415 64.0029 26.4157H58.6744C57.9962 26.4165 57.3459 26.6817 56.8664 27.1532C56.3869 27.6247 56.1174 28.264 56.117 28.9306C56.1165 29.294 55.9695 29.6424 55.708 29.8993C55.4466 30.1563 55.0921 30.3008 54.7224 30.3011H54.2504V29.4232ZM54.2504 33.6946V32.8887H54.7224C55.7771 32.8875 56.7893 32.4802 57.5421 31.7541C58.2948 31.028 58.7282 30.041 58.7493 29.0046H63.3769V33.6946C63.3863 34.2894 63.2752 34.8801 63.0501 35.4323C62.825 35.9846 62.4903 36.4872 62.0657 36.9111C61.641 37.3351 61.1348 37.6717 60.5765 37.9015C60.0182 38.1313 59.4189 38.2496 58.8137 38.2496C58.2084 38.2496 57.6091 38.1313 57.0508 37.9015C56.4925 37.6717 55.9863 37.3351 55.5616 36.9111C55.137 36.4872 54.8023 35.9846 54.5772 35.4323C54.3521 34.8801 54.241 34.2894 54.2504 33.6946ZM65.5818 50.8637H52.0455V47.0929C52.0468 46.0594 52.4652 45.0686 53.2087 44.3378C53.9522 43.607 54.9603 43.1959 56.0119 43.1946H61.6155C62.667 43.1959 63.6751 43.607 64.4186 44.3378C65.1622 45.0686 65.5805 46.0594 65.5818 47.0929V50.8637Z" fill="#3F4B7D"/>
<path d="M63.3652 45.3467H61.752C61.4029 45.3467 61.068 45.483 60.8211 45.7257C60.5742 45.9683 60.4355 46.2974 60.4355 46.6406C60.4355 46.9837 60.5742 47.3128 60.8211 47.5555C61.068 47.7982 61.4029 47.9345 61.752 47.9345H63.3652C63.7143 47.9345 64.0492 47.7982 64.296 47.5555C64.5429 47.3128 64.6816 46.9837 64.6816 46.6406C64.6816 46.2974 64.5429 45.9683 64.296 45.7257C64.0492 45.483 63.7143 45.3467 63.3652 45.3467Z" fill="#3F4B7D"/>
<path d="M74.9337 50.6223C75.2828 50.6223 75.6177 50.486 75.8646 50.2433C76.1115 50.0006 76.2502 49.6715 76.2502 49.3284V48.5952C76.2502 48.252 76.1115 47.9229 75.8646 47.6802C75.6177 47.4376 75.2828 47.3013 74.9337 47.3013C74.5845 47.3013 74.2497 47.4376 74.0028 47.6802C73.7559 47.9229 73.6172 48.252 73.6172 48.5952V49.3284C73.6172 49.6715 73.7559 50.0006 74.0028 50.2433C74.2497 50.486 74.5845 50.6223 74.9337 50.6223Z" fill="#3F4B7D"/>
<path d="M74.9337 61.6061C75.2828 61.6061 75.6177 61.4698 75.8646 61.2271C76.1115 60.9845 76.2502 60.6554 76.2502 60.3122V53.205C76.2502 52.8619 76.1115 52.5328 75.8646 52.2901C75.6177 52.0475 75.2828 51.9111 74.9337 51.9111C74.5845 51.9111 74.2497 52.0475 74.0028 52.2901C73.7559 52.5328 73.6172 52.8619 73.6172 53.205V60.3122C73.6172 60.6554 73.7559 60.9845 74.0028 61.2271C74.2497 61.4698 74.5845 61.6061 74.9337 61.6061Z" fill="#3F4B7D"/>
<path d="M17.4284 69.3516C14.7434 69.3479 12.1176 70.127 9.88332 71.5904C7.64901 73.0538 5.90656 75.1357 4.87644 77.5727C3.84633 80.0097 3.57485 82.6922 4.09634 85.2809C4.61784 87.8695 5.90888 90.248 7.80611 92.1153C9.70334 93.9826 12.1215 95.2548 14.7546 95.771C17.3877 96.2872 20.1175 96.0242 22.5984 95.0152C25.0794 94.0062 27.2001 92.2965 28.6922 90.1026C30.1842 87.9087 30.9807 85.3291 30.9807 82.6901C30.9792 79.1562 29.5515 75.7672 27.0108 73.2666C24.4701 70.766 21.024 69.358 17.4284 69.3516ZM27.255 84.0725H28.2545C28.0007 86.0065 27.2144 87.8357 25.9805 89.3628L25.1223 88.5181C24.8938 88.2857 24.5859 88.1445 24.2579 88.1216C23.9298 88.0987 23.6047 88.1957 23.3451 88.3941C23.2052 88.5068 23.0908 88.6471 23.0094 88.8058C22.9279 88.9646 22.8812 89.1384 22.8722 89.316C22.8632 89.4935 22.8921 89.671 22.957 89.837C23.022 90.0029 23.1216 90.1537 23.2494 90.2795L24.1431 91.1591C22.5736 92.3711 20.6944 93.1341 18.7122 93.3642L18.7091 92.2438C18.7082 91.9065 18.5712 91.5832 18.3281 91.345C18.085 91.1068 17.7556 90.9731 17.4124 90.9732H17.4088C17.2388 90.9732 17.0704 91.0062 16.9134 91.0703C16.7563 91.1343 16.6137 91.2282 16.4936 91.3465C16.3736 91.4649 16.2784 91.6053 16.2137 91.7599C16.1489 91.9144 16.1158 92.08 16.1163 92.2471L16.1194 93.3609C14.1389 93.1265 12.2625 92.36 10.6963 91.1458L11.5365 90.3187C11.7725 90.0938 11.9157 89.791 11.9386 89.4687C11.9614 89.1463 11.8623 88.8269 11.6602 88.572C11.5453 88.4346 11.4024 88.3224 11.2407 88.2425C11.079 88.1627 10.9021 88.117 10.7213 88.1084C10.5406 88.0998 10.36 88.1284 10.1912 88.1925C10.0224 88.2566 9.86912 88.3547 9.74122 88.4806L8.86203 89.3462C7.63607 87.8223 6.855 85.9993 6.60251 84.0725H7.78844C8.1099 84.0774 8.42266 83.9697 8.67068 83.7687C8.91871 83.5676 9.08579 83.2863 9.142 82.9752C9.17062 82.7925 9.15906 82.6059 9.1081 82.4279C9.05714 82.2499 8.96797 82.0848 8.84659 81.9435C8.72521 81.8023 8.57444 81.6882 8.40444 81.6091C8.23444 81.5299 8.04915 81.4875 7.86106 81.4847H6.57947C6.80429 79.514 7.58143 77.6434 8.82429 76.0814L9.74056 76.9834C9.97873 77.2178 10.3004 77.3517 10.6374 77.3569C10.9744 77.3621 11.3001 77.2381 11.5457 77.0112C11.6702 76.8884 11.7688 76.7425 11.8357 76.582C11.9027 76.4216 11.9367 76.2497 11.9358 76.0763C11.9349 75.9028 11.8991 75.7313 11.8305 75.5715C11.7619 75.4117 11.6618 75.2668 11.536 75.1452L10.6485 74.2714C12.2239 73.0363 14.118 72.2565 16.1187 72.0194L16.1154 73.3331C16.1137 74.0366 16.6922 74.3682 17.4082 74.5839H17.4115C17.7547 74.5839 18.0838 74.4501 18.3268 74.2119C18.5698 73.9737 18.7067 73.6506 18.7076 73.3133L18.7108 72.0161C20.7063 72.248 22.5971 73.0197 24.1727 74.2453L23.2731 75.1584C23.0247 75.4067 22.8864 75.7415 22.8884 76.0897C22.8904 76.4379 23.0326 76.7711 23.2839 77.0166C23.5322 77.2433 23.861 77.3654 24.1998 77.3567C24.5386 77.348 24.8605 77.2092 25.0964 76.97L26.0053 76.0486C27.2638 77.6168 28.0508 79.4998 28.2773 81.4847H27.255C26.9059 81.4847 26.571 81.621 26.3241 81.8636C26.0773 82.1063 25.9386 82.4354 25.9386 82.7786C25.9386 83.1217 26.0773 83.4508 26.3241 83.6935C26.571 83.9361 26.9059 84.0725 27.255 84.0725Z" fill="#3F4B7D"/>
<path d="M38.6501 53.863L27.7881 45.4926C27.5938 45.343 27.3606 45.2501 27.1152 45.2245C26.8697 45.1989 26.6219 45.2416 26.4 45.3478C26.1781 45.454 25.991 45.6193 25.8601 45.825C25.7292 46.0306 25.6598 46.2683 25.6598 46.5109V49.7642H15.2266C14.8775 49.7642 14.5426 49.9005 14.2957 50.1432C14.0489 50.3858 13.9102 50.7149 13.9102 51.0581V58.642C13.9102 58.9852 14.0489 59.3143 14.2957 59.557C14.5426 59.7996 14.8775 59.9359 15.2266 59.9359H25.6593V63.2531C25.6594 63.4956 25.7289 63.7333 25.8598 63.9389C25.9907 64.1445 26.1778 64.3098 26.3997 64.416C26.6216 64.5221 26.8694 64.5648 27.1148 64.5392C27.3602 64.5136 27.5933 64.4207 27.7876 64.2711L38.6497 55.9001C38.8068 55.779 38.9338 55.6244 39.0212 55.448C39.1086 55.2716 39.154 55.078 39.154 54.8818C39.154 54.6856 39.1086 54.4919 39.0212 54.3155C38.9338 54.1391 38.8068 53.9845 38.6497 53.8635L38.6501 53.863ZM28.2923 60.5937V58.6416C28.2923 58.2984 28.1536 57.9693 27.9067 57.7267C27.6598 57.484 27.3249 57.3477 26.9758 57.3477H16.5431V52.3515H26.9758C27.3249 52.3515 27.6598 52.2152 27.9067 51.9726C28.1536 51.7299 28.2923 51.4008 28.2923 51.0576V49.1692L35.7043 54.8813L28.2923 60.5937Z" fill="#3F4B7D"/>
</svg>
