<svg width="118" height="112" viewBox="0 0 118 112" fill="none" xmlns="http://www.w3.org/2000/svg">
<path d="M46.0918 2.3335H82.9667V11.6668H46.0918V2.3335Z" fill="#BFDBFF"/>
<path d="M59.9199 21H96.7949V30.3333H59.9199V21Z" fill="#FFE6B4"/>
<path d="M73.748 39.667H110.623V49.0003H73.748V39.667Z" fill="#FF9C9B"/>
<path d="M73.748 58.3335H110.623V67.6668H73.748V58.3335Z" fill="#BFDBFF"/>
<path d="M93.7988 77H115.693V86.3333H93.7988V77Z" fill="#FFE6B4"/>
<path d="M55.7715 109.666C59.3354 109.666 62.2246 106.741 62.2246 103.133C62.2246 99.5247 59.3354 96.5996 55.7715 96.5996C52.2075 96.5996 49.3184 99.5247 49.3184 103.133C49.3184 106.741 52.2075 109.666 55.7715 109.666Z" fill="#9DE3D1"/>
<path d="M28.1152 109.666C31.6792 109.666 34.5683 106.741 34.5683 103.133C34.5683 99.5247 31.6792 96.5996 28.1152 96.5996C24.5513 96.5996 21.6621 99.5247 21.6621 103.133C21.6621 106.741 24.5513 109.666 28.1152 109.666Z" fill="#9DE3D1"/>
<path d="M83.4277 109.666C86.9917 109.666 89.8808 106.741 89.8808 103.133C89.8808 99.5247 86.9917 96.5996 83.4277 96.5996C79.8638 96.5996 76.9746 99.5247 76.9746 103.133C76.9746 106.741 79.8638 109.666 83.4277 109.666Z" fill="#9DE3D1"/>
<path d="M64.5312 14.0002C65.8041 14.0002 66.8359 12.9555 66.8359 11.6668C66.8359 10.3782 65.8041 9.3335 64.5312 9.3335C63.2584 9.3335 62.2266 10.3782 62.2266 11.6668C62.2266 12.9555 63.2584 14.0002 64.5312 14.0002Z" fill="#3F4B7D"/>
<path d="M93.8007 88.6667H115.695C116.968 88.6667 118 87.6218 118 86.3333V77C118 75.7115 116.968 74.6667 115.695 74.6667H93.8007C92.5278 74.6667 91.496 75.7115 91.496 77V79.3333H83.4296C82.1567 79.3333 81.1249 80.3782 81.1249 81.6667V94.5805C78.1456 95.4044 75.7955 97.7837 74.9818 100.8H64.2212C63.4074 97.7837 61.0573 95.4044 58.078 94.5805V65.3333H71.4452V67.6667C71.4452 68.9551 72.477 70 73.7499 70H110.625C111.898 70 112.93 68.9551 112.93 67.6667V58.3333C112.93 57.0449 111.898 56 110.625 56H73.7499C72.477 56 71.4452 57.0449 71.4452 58.3333V60.6667H55.7734C54.5005 60.6667 53.4687 61.7115 53.4687 63V94.5803C50.4894 95.4042 48.1393 97.7835 47.3255 100.8H36.565C35.7512 97.7835 33.4011 95.4042 30.4218 94.5803V9.33355H43.789V11.6669C43.7722 12.813 44.783 14.014 46.0937 14.0002H48.3984V25.6669C48.3984 26.9554 49.4302 28.0002 50.7031 28.0002H57.6171V30.3336C57.6171 31.622 58.6489 32.6669 59.9218 32.6669H62.2265V44.3336C62.2265 45.622 63.2583 46.6669 64.5312 46.6669H71.4452V49.0002C71.4452 50.2887 72.477 51.3336 73.7499 51.3336H110.625C111.898 51.3336 112.93 50.2887 112.93 49.0002V39.6669C112.93 38.3784 111.898 37.3336 110.625 37.3336H73.7499C72.477 37.3336 71.4452 38.3784 71.4452 39.6669V42.0002H66.8358V32.6669H96.7967C98.0696 32.6669 99.1014 31.622 99.1014 30.3336V21.0002C99.1014 19.7118 98.0696 18.6669 96.7967 18.6669H59.9218C58.6489 18.6669 57.6171 19.7118 57.6171 21.0002V23.3336H53.0077V14.0002H54.1601C55.43 14.0002 56.4648 12.9526 56.4648 11.6669C56.4648 10.3812 55.43 9.33355 54.1601 9.33355H48.3984V4.66688H80.6639V9.33355H74.9022C73.6324 9.33355 72.5975 10.3812 72.5975 11.6669C72.5975 12.9526 73.6324 14.0002 74.9022 14.0002H82.9686C84.1005 14.0163 85.2867 12.9957 85.2733 11.6669V2.33355C85.2901 1.18765 84.2793 -0.0137848 82.9686 0.00021524H46.0937C44.9616 -0.0170514 43.7754 1.00658 43.789 2.33355V4.66688H28.1171C26.8443 4.66688 25.8125 5.71175 25.8125 7.00022V94.5805C22.8332 95.4044 20.4831 97.7837 19.6693 100.8H2.30468C1.03181 100.8 0 101.845 0 103.133C0 104.422 1.03181 105.467 2.30468 105.467H19.6693C20.6838 109.227 24.0858 112 28.1171 112C32.1485 112 35.5504 109.227 36.565 105.467H47.3255C48.3401 109.227 51.742 112 55.7734 112C59.8047 112 63.2067 109.227 64.2212 105.467H74.9818C75.9963 109.227 79.3982 112 83.4296 112C87.4609 112 90.8629 109.227 91.8774 105.467H110.131L107.612 108.017C106.712 108.928 106.712 110.405 107.612 111.317C108.443 112.149 109.913 112.274 110.872 111.317L117.325 104.783C118.225 103.872 118.225 102.395 117.325 101.483L110.872 94.9501C109.972 94.0392 108.513 94.0392 107.612 94.9501C106.712 95.8613 106.712 97.3387 107.612 98.2501L110.131 100.8H91.8774C91.0636 97.7837 88.7135 95.4044 85.7343 94.5805V84H91.496V86.3333C91.496 87.622 92.5278 88.6667 93.8007 88.6667ZM76.0546 60.6667H108.32V65.3333H76.0546V60.6667ZM76.0546 42.0002H108.32V46.6669H76.0546V42.0002ZM62.2265 23.3336H94.4921V28.0002H62.2265V23.3336ZM28.1171 107.333C25.8297 107.333 23.9687 105.449 23.9687 103.133C23.9687 100.817 25.8297 98.9333 28.1171 98.9333C30.4045 98.9333 32.2656 100.817 32.2656 103.133C32.2656 105.449 30.4045 107.333 28.1171 107.333ZM55.7734 107.333C53.486 107.333 51.6249 105.449 51.6249 103.133C51.6249 100.817 53.486 98.9333 55.7734 98.9333C58.0608 98.9333 59.9218 100.817 59.9218 103.133C59.9218 105.449 58.0608 107.333 55.7734 107.333ZM87.578 103.133C87.578 105.449 85.717 107.333 83.4296 107.333C81.1422 107.333 79.2811 105.449 79.2811 103.133C79.2811 100.817 81.1422 98.9333 83.4296 98.9333C85.717 98.9333 87.578 100.817 87.578 103.133ZM96.1053 79.3333H113.39V84H96.1053V79.3333Z" fill="#3F4B7D"/>
</svg>
