<svg width="120" height="112" viewBox="0 0 120 112" fill="none" xmlns="http://www.w3.org/2000/svg">
<path d="M13.9685 0.320129C13.5451 0.746964 13.5451 10.8403 13.9685 11.2672C14.1428 11.4429 14.9396 11.5685 15.8361 11.5685H17.4049V15.0836V18.5987H16.7077C15.612 18.5987 13.4704 19.3017 11.6277 20.2809C8.41539 21.9631 5.47699 25.9302 4.72994 29.5959C3.70897 34.5673 5.5517 40.5179 9.48617 44.8364C11.7024 47.297 12.2503 48.1507 12.7981 50.0588C13.2214 51.5151 13.2214 51.5402 12.6985 51.8917C12.2503 52.2181 12.1756 52.5194 12.1756 54.2017C12.1756 57.7419 13.6697 59.8007 16.9816 60.8803C17.3551 61.0059 17.4049 61.4578 17.4049 65.8015V70.572H15.8361C14.9396 70.572 14.1428 70.6975 13.9685 70.8733C13.5451 71.3001 13.5451 81.3935 13.9685 81.8203C14.1428 81.9961 14.8649 82.1216 15.612 82.1216C16.8073 82.1216 16.9318 82.1718 16.7824 82.5485C16.1847 83.9294 15.1389 88.2731 14.9894 89.8297L14.84 91.6375L14.093 90.583C13.1467 89.2774 12.4744 88.725 11.6277 88.5241C9.85969 88.1224 8.19128 90.4072 8.19128 93.2193C8.21618 95.3284 8.81382 96.5838 10.8309 98.6928L12.4744 100.425L11.1546 100.501C9.83479 100.576 9.80989 100.601 9.80989 101.329C9.80989 102.007 9.8846 102.082 10.806 102.208L11.802 102.333L11.8767 106.275L11.9514 110.242H6.22404C0.148024 110.242 -0.275305 110.318 0.0982203 111.498L0.247631 112H60.0118C115.094 112 119.776 111.975 119.925 111.598C120 111.372 119.975 110.996 119.826 110.77C119.602 110.418 118.63 110.343 112.38 110.242L105.183 110.117L106.304 109.514C110.363 107.355 114.372 103.137 116.115 99.1448C119.477 91.4618 118.581 83.0004 113.65 76.397L112.455 74.7901L114.048 73.1832L115.617 71.5763H117.41C119.153 71.5763 120 71.2499 120 70.572C120 70.1452 119.203 69.5677 118.63 69.5677C118.083 69.5677 118.058 69.5175 118.332 68.8144C118.556 68.1867 118.556 67.9859 118.207 67.6344C117.809 67.2578 117.734 67.2578 117.161 67.6344C116.315 68.2119 116.315 68.1867 116.215 67.1322C116.165 66.4543 116.016 66.153 115.692 66.1028C114.82 65.927 114.522 66.5045 114.522 68.3876V70.1703L112.878 71.8525L111.21 73.5347L109.616 72.3044C107.798 70.8984 106.653 70.2456 104.312 69.2664L102.693 68.5885L102.619 40.091L102.569 11.5685H104.138C105.034 11.5685 105.831 11.4429 106.005 11.2672C106.429 10.8403 106.429 0.746964 106.005 0.320129C105.582 -0.106705 14.3918 -0.106705 13.9685 0.320129ZM104.312 5.79366V9.81091H59.9869H15.6618V5.79366V1.77639H59.9869H104.312V5.79366ZM100.577 39.8148V68.0612L99.5308 67.8854C98.9332 67.7599 97.1651 67.7097 95.5963 67.7348C92.2595 67.785 89.7444 68.3374 86.9056 69.6932L85.0878 70.572H52.2424H19.3971V65.8517V61.1314L20.7666 60.5539C22.2358 59.9514 23.705 58.4951 24.2778 57.1142C24.477 56.6371 24.7011 55.4319 24.7758 54.4276C24.9252 52.6701 24.9252 52.5696 24.3027 52.0675C23.705 51.6155 23.6801 51.49 23.9043 50.5108C24.3027 48.7532 25.2988 47.0459 27.1166 45.0624C30.4285 41.472 32.072 37.6807 32.2961 33.2868C32.4705 29.0938 31.3499 25.9804 28.5858 23.0177C26.2948 20.532 23.5058 19.0255 20.5923 18.674L19.3971 18.5233V15.0585V11.5685H59.9869H100.577V39.8148ZM23.6552 21.5363C29.1087 24.2731 31.6487 29.9474 30.1297 35.9733C29.3328 39.1369 28.0131 41.3966 25.2988 44.3845C23.5556 46.3178 22.5098 48.2511 22.0864 50.3601C21.8872 51.4398 21.7129 51.7411 21.3643 51.7411C20.9161 51.7411 20.8912 51.4649 20.8912 47.5983V43.4555H22.0864C25.6225 43.4555 27.4154 39.865 25.0248 37.4798C24.1858 36.8143 23.8123 36.626 22.6343 36.5508C21.2647 36.5508 21.0904 36.6261 20.2188 37.4798C19.422 38.3084 19.2974 38.5845 19.1978 39.9153C19.0982 41.3966 19.0733 41.4468 18.3761 41.4468C17.6788 41.4468 17.6539 41.4217 17.6539 40.1161C17.6539 37.9066 16.2345 36.4253 14.093 36.4253C12.2752 36.4253 10.5569 38.4088 10.7811 40.2668C11.0052 42.2001 12.1507 43.1793 14.4167 43.3801L15.9108 43.5308V47.6234C15.9108 51.5151 15.8859 51.7411 15.4377 51.7411C15.0642 51.7411 14.9396 51.49 14.7902 50.4606C14.5163 48.5273 13.1716 46.0918 11.055 43.7317C8.14148 40.4676 6.72208 37.4547 6.32365 33.6634C5.87542 29.4202 8.16638 24.6497 11.7273 22.3397C14.0681 20.8333 15.9108 20.3311 18.9239 20.4064C21.4639 20.4818 21.6382 20.532 23.6552 21.5363ZM15.5124 38.9863C15.7365 39.2876 15.9108 39.9655 15.9108 40.4927V41.4468H14.6906C13.2712 41.4468 12.6736 40.9949 12.6736 39.9404C12.6736 38.9863 13.2712 38.4339 14.2922 38.4339C14.8898 38.4339 15.2634 38.6096 15.5124 38.9863ZM23.8794 38.8356C24.3774 39.4131 24.2778 40.7187 23.7549 41.0953C23.5058 41.2962 22.7588 41.4468 22.0864 41.4468H20.8912V40.4927C20.8912 39.1118 21.4639 38.4339 22.6094 38.4339C23.1821 38.4339 23.7051 38.5845 23.8794 38.8356ZM19.148 47.5983V51.7411H18.401H17.6539V47.5983V43.4555H18.401H19.148V47.5983ZM22.8833 54.754C22.8833 58.2189 18.8492 60.3782 15.9855 58.47C14.8151 57.6916 13.9187 56.0345 13.9187 54.6787V53.7497H18.401H22.8833V54.754ZM100.975 70.0698C104.013 70.8482 107.972 72.9572 109.342 74.5139C109.765 74.9659 109.716 75.0412 108.296 76.4723C107.176 77.5771 106.702 77.9035 106.478 77.7277C104.735 76.4221 102.843 75.3676 101.075 74.7399C99.1822 74.062 98.6343 73.9867 96.0943 73.9867C93.5544 73.9867 93.0065 74.062 91.114 74.7399C88.4246 75.694 86.6068 76.8992 84.5648 79.1087C82.7719 81.0169 81.4023 83.5277 80.7549 86.1138C80.1572 88.5492 80.3565 92.7423 81.2031 95.1024C82.5478 98.8937 85.3119 102.082 88.8728 103.965C91.2634 105.196 93.3552 105.723 96.0943 105.723C100.552 105.723 104.038 104.267 107.176 101.078C110.512 97.7136 111.882 94.4245 111.857 89.654C111.857 87.4445 111.758 86.6913 111.185 85.009C110.512 83.0255 109.417 80.9667 108.52 79.9874C108.072 79.4602 108.072 79.4351 109.641 77.8784L111.235 76.2715L112.43 77.8784C113.799 79.7615 115.045 82.3225 115.667 84.6324C116.016 85.8627 116.14 87.1683 116.14 89.9051C116.14 93.0435 116.066 93.7968 115.567 95.4288C113.277 102.735 108.172 107.656 100.801 109.665C98.3604 110.318 93.5544 110.268 90.9895 109.539C80.0078 106.401 73.6828 95.253 76.671 84.3813C78.6382 77.3511 84.7641 71.4759 91.7116 69.9443C94.1271 69.417 98.6592 69.4672 100.975 70.0698ZM81.228 73.5347C79.6592 74.991 78.0157 77.0498 76.9449 78.9329L76.1481 80.3641H51.4207H26.6933L26.3944 79.3598C25.2739 75.5434 20.8663 75.4429 18.5006 79.2091C17.8282 80.2887 17.7037 80.3641 16.7326 80.3641H15.6618V76.3468V72.3295H49.1048H82.5229L81.228 73.5347ZM99.7051 76.2213C101.274 76.6481 103.49 77.7528 104.685 78.7069L105.432 79.3346L104.088 80.6905L102.743 82.0714L101.747 81.3433C99.7549 79.887 96.4679 79.2844 93.903 79.8619C88.7483 81.0671 85.2123 86.3649 86.1586 91.4869C87.1546 97.0608 92.0603 100.676 97.6632 99.898C101.697 99.3456 105.159 96.0565 106.03 91.9639C106.18 91.2358 106.304 90.2064 106.304 89.7042C106.304 88.2479 105.632 85.8878 104.835 84.6073L104.113 83.4272L105.482 82.0965L106.827 80.7407L107.325 81.3684C108.197 82.5233 109.491 85.3605 109.79 86.8168C110.239 89.0012 109.99 92.692 109.242 94.7007C106.354 102.534 97.3892 106.125 89.8689 102.409C87.6776 101.329 84.7641 98.3915 83.6933 96.182C82.8217 94.3994 82.1494 91.6877 82.1494 89.88C82.1245 83.7285 86.5819 77.8784 92.5085 76.2213C94.2018 75.7693 97.9122 75.7693 99.7051 76.2213ZM24.3027 79.0333C24.9252 79.9874 24.8505 82.9 24.1533 85.6367C23.4311 88.4237 21.4141 92.6167 19.1231 96.1318L17.2804 98.9439L17.1061 98.0149C16.7326 96.0565 16.6081 91.2609 16.882 89.5033C17.5543 85.1346 19.2974 80.7156 20.941 79.2342C22.186 78.0792 23.6303 78.0039 24.3027 79.0333ZM99.7798 82.3978C100.626 82.8246 101.324 83.2515 101.324 83.3519C101.324 83.4523 100.826 84.0047 100.228 84.6073L99.1075 85.712L98.1861 85.2601C96.7418 84.5822 94.401 84.8082 93.1808 85.7874C91.9856 86.7415 91.114 88.4488 91.114 89.7795C91.1389 92.4912 93.6042 94.9266 96.3434 94.9266C97.5386 94.9266 99.5059 93.7717 100.228 92.6669C101.1 91.3362 101.324 89.1016 100.726 87.8713L100.303 87.0428L101.423 85.938C102.046 85.3103 102.643 84.8835 102.793 84.9839C103.54 85.461 104.163 87.3189 104.262 89.428C104.362 91.3864 104.312 91.7379 103.689 93.144C102.893 94.9266 101.149 96.7093 99.3814 97.5128C97.5635 98.3664 94.4508 98.2911 92.5583 97.3621C87.4783 94.8513 86.308 87.9718 90.2673 83.9545C92.882 81.3182 96.4181 80.7407 99.7798 82.3978ZM53.5124 82.3476C53.5124 82.4982 50.8479 88.7752 47.5609 96.3578L41.6343 110.117L31.3748 110.192L21.1402 110.242V106.25V102.233L22.0366 102.158C23.1323 102.057 23.6552 101.455 23.1572 100.852C22.9082 100.551 22.3355 100.45 20.8663 100.45C19.7706 100.45 18.899 100.4 18.899 100.325C18.899 100.024 19.7208 98.5673 21.2896 96.182C24.0039 91.989 25.996 87.1432 26.494 83.4272L26.6684 82.1216H40.0904C48.3079 82.1216 53.5124 82.222 53.5124 82.3476ZM58.9908 96.182V110.242H51.3958C46.9882 110.242 43.8007 110.142 43.8007 110.016C43.8007 109.891 46.3407 103.915 49.4285 96.7595C52.5163 89.6038 55.2057 83.377 55.38 82.9251C55.7287 82.1467 55.7536 82.1216 57.3473 82.1216H58.9908V96.182ZM70.2464 96.0063C73.5085 103.589 76.173 109.891 76.173 110.016C76.173 110.142 72.9606 110.242 68.5779 110.242H60.9829V96.182V82.0965L62.6513 82.1718L64.2949 82.2472L70.2464 96.0063ZM75.3014 82.5485C74.6789 84.2056 74.3551 86.1891 74.2555 89.1016C74.131 91.9137 74.2057 92.7925 74.654 94.8011C76.0236 100.701 80.0078 106.125 85.2123 109.087L87.2542 110.242L82.7968 110.192L78.3145 110.117L72.4128 96.4331C69.1507 88.9007 66.4862 82.5987 66.4862 82.4229C66.4613 82.1969 67.5321 82.1216 70.9685 82.1216C75.152 82.1216 75.4757 82.1467 75.3014 82.5485ZM97.3394 86.8921C97.6383 87.093 97.4888 87.3441 96.4679 88.3986C95.4469 89.4531 95.2726 89.7293 95.4967 90.1059C95.9947 90.8843 96.6173 90.7336 97.7628 89.6038C98.6592 88.725 98.8833 88.5995 99.0826 88.9007C99.6553 89.8046 99.1075 91.4618 97.9371 92.3907C96.941 93.1691 95.1232 93.1189 94.1271 92.2652C92.4587 90.8592 92.6828 88.0471 94.5753 87.0177C95.3224 86.6159 96.7916 86.5406 97.3394 86.8921ZM12.3997 91.3362C12.823 91.8635 13.321 92.7423 13.5202 93.2946C14.6159 96.5587 15.612 99.8227 15.5373 99.9231C15.3381 100.099 13.3459 98.6426 12.1756 97.4625C10.6815 95.9561 10.0589 94.6253 10.0838 93.0184C10.0838 91.6626 10.6815 90.4072 11.304 90.4072C11.4783 90.4072 11.9763 90.8341 12.3997 91.3362ZM19.148 106.225V110.242H16.4088H13.6697V106.225V102.208H16.4088H19.148V106.225Z" fill="#3F4B7D"/>
<path d="M30.1297 35.9733C31.6487 29.9474 29.1087 24.2731 23.6552 21.5363C21.6382 20.532 21.4639 20.4818 18.9239 20.4064C15.9108 20.3311 14.0681 20.8333 11.7273 22.3397C8.16638 24.6497 5.87542 29.4202 6.32365 33.6634C6.72208 37.4547 8.14148 40.4676 11.055 43.7317C13.1716 46.0918 14.5163 48.5273 14.7902 50.4606C14.9396 51.49 15.0642 51.7411 15.4377 51.7411C15.8859 51.7411 15.9108 51.5151 15.9108 47.6234V43.5308L14.4167 43.3801C12.1507 43.1793 11.0052 42.2001 10.7811 40.2668C10.5569 38.4088 12.2752 36.4253 14.093 36.4253C16.2345 36.4253 17.6539 37.9066 17.6539 40.1161C17.6539 41.4217 17.6788 41.4468 18.3761 41.4468C19.0733 41.4468 19.0982 41.3966 19.1978 39.9153C19.2974 38.5845 19.422 38.3084 20.2188 37.4798C21.0904 36.6261 21.2647 36.5508 22.6343 36.5508C23.8123 36.626 24.1858 36.8143 25.0248 37.4798C27.4154 39.865 25.6225 43.4555 22.0864 43.4555H20.8912V47.5983C20.8912 51.4649 20.9161 51.7411 21.3643 51.7411C21.7129 51.7411 21.8872 51.4398 22.0864 50.3601C22.5098 48.2511 23.5556 46.3178 25.2988 44.3845C28.0131 41.3966 29.3328 39.1369 30.1297 35.9733Z" fill="#EE8E15"/>
<path d="M15.9108 40.4927C15.9108 39.9655 15.7365 39.2876 15.5124 38.9863C15.2634 38.6096 14.8898 38.4339 14.2922 38.4339C13.2712 38.4339 12.6736 38.9863 12.6736 39.9404C12.6736 40.9949 13.2712 41.4468 14.6906 41.4468H15.9108V40.4927Z" fill="#EE8E15"/>
<path d="M23.7549 41.0953C24.2778 40.7187 24.3774 39.4131 23.8794 38.8356C23.7051 38.5845 23.1821 38.4339 22.6094 38.4339C21.4639 38.4339 20.8912 39.1118 20.8912 40.4927V41.4468H22.0864C22.7588 41.4468 23.5058 41.2962 23.7549 41.0953Z" fill="#EE8E15"/>
<path d="M19.148 51.7411V47.5983V43.4555H18.401H17.6539V47.5983V51.7411H18.401H19.148Z" fill="#EE8E15"/>
<path d="M15.9855 58.47C18.8492 60.3782 22.8833 58.2189 22.8833 54.754V53.7497H18.401H13.9187V54.6787C13.9187 56.0345 14.8151 57.6916 15.9855 58.47Z" fill="#EE8E15"/>
<path d="M109.342 74.5139C107.972 72.9572 104.013 70.8482 100.975 70.0698C98.6592 69.4672 94.1271 69.417 91.7116 69.9443C84.7641 71.4759 78.6382 77.3511 76.671 84.3813C73.6828 95.253 80.0078 106.401 90.9895 109.539C93.5544 110.268 98.3604 110.318 100.801 109.665C108.172 107.656 113.277 102.735 115.567 95.4288C116.066 93.7968 116.14 93.0435 116.14 89.9051C116.14 87.1683 116.016 85.8627 115.667 84.6324C115.045 82.3225 113.799 79.7615 112.43 77.8784L111.235 76.2715L109.641 77.8784C108.072 79.4351 108.072 79.4602 108.52 79.9874C109.417 80.9667 110.512 83.0255 111.185 85.009C111.758 86.6913 111.857 87.4445 111.857 89.654C111.882 94.4245 110.512 97.7136 107.176 101.078C104.038 104.267 100.552 105.723 96.0943 105.723C93.3552 105.723 91.2634 105.196 88.8728 103.965C85.3119 102.082 82.5478 98.8937 81.2031 95.1024C80.3565 92.7423 80.1572 88.5492 80.7549 86.1138C81.4023 83.5277 82.7719 81.0169 84.5648 79.1087C86.6068 76.8992 88.4246 75.694 91.114 74.7399C93.0065 74.062 93.5544 73.9867 96.0943 73.9867C98.6343 73.9867 99.1822 74.062 101.075 74.7399C102.843 75.3676 104.735 76.4221 106.478 77.7277C106.702 77.9035 107.176 77.5771 108.296 76.4723C109.716 75.0412 109.765 74.9659 109.342 74.5139Z" fill="#EE8E15"/>
<path d="M104.685 78.7069C103.49 77.7528 101.274 76.6481 99.7051 76.2213C97.9122 75.7693 94.2018 75.7693 92.5085 76.2213C86.5819 77.8784 82.1245 83.7285 82.1494 89.88C82.1494 91.6877 82.8217 94.3994 83.6933 96.182C84.7641 98.3915 87.6776 101.329 89.8689 102.409C97.3892 106.125 106.354 102.534 109.242 94.7007C109.99 92.692 110.239 89.0012 109.79 86.8168C109.491 85.3605 108.197 82.5233 107.325 81.3684L106.827 80.7407L105.482 82.0965L104.113 83.4272L104.835 84.6073C105.632 85.8878 106.304 88.2479 106.304 89.7042C106.304 90.2064 106.18 91.2358 106.03 91.9639C105.159 96.0565 101.697 99.3456 97.6632 99.898C92.0603 100.676 87.1546 97.0608 86.1586 91.4869C85.2123 86.3649 88.7483 81.0671 93.903 79.8619C96.4679 79.2844 99.7549 79.887 101.747 81.3433L102.743 82.0714L104.088 80.6905L105.432 79.3346L104.685 78.7069Z" fill="#EE8E15"/>
<path d="M96.4679 88.3986C97.4888 87.3441 97.6383 87.093 97.3394 86.8921C96.7916 86.5406 95.3224 86.6159 94.5753 87.0177C92.6828 88.0471 92.4587 90.8592 94.1271 92.2652C95.1232 93.1189 96.941 93.1691 97.9371 92.3907C99.1075 91.4618 99.6553 89.8046 99.0826 88.9007C98.8833 88.5995 98.6592 88.725 97.7628 89.6038C96.6173 90.7336 95.9947 90.8843 95.4967 90.1059C95.2726 89.7293 95.4469 89.4531 96.4679 88.3986Z" fill="#EE8E15"/>
<path d="M101.324 83.3519C101.324 83.2515 100.626 82.8246 99.7798 82.3978C96.4181 80.7407 92.882 81.3182 90.2673 83.9545C86.308 87.9718 87.4783 94.8513 92.5583 97.3621C94.4508 98.2911 97.5635 98.3664 99.3814 97.5128C101.149 96.7093 102.893 94.9266 103.689 93.144C104.312 91.7379 104.362 91.3864 104.262 89.428C104.163 87.3189 103.54 85.461 102.793 84.9839C102.643 84.8835 102.046 85.3103 101.423 85.938L100.303 87.0428L100.726 87.8713C101.324 89.1016 101.1 91.3362 100.228 92.6669C99.5059 93.7717 97.5386 94.9266 96.3434 94.9266C93.6042 94.9266 91.1389 92.4912 91.114 89.7795C91.114 88.4488 91.9856 86.7415 93.1808 85.7874C94.401 84.8082 96.7418 84.5822 98.1861 85.2601L99.1075 85.712L100.228 84.6073C100.826 84.0047 101.324 83.4523 101.324 83.3519Z" fill="#EE8E15"/>
<path d="M68.9532 14.3309C68.2808 15.0088 68.3306 15.4357 69.3018 17.4945L70.1484 19.2772L53.1157 27.5377C41.5613 33.1367 36.0331 35.9237 35.9335 36.2501C35.7841 36.7523 36.2323 37.4302 36.7303 37.4302C37.0043 37.4302 42.8562 34.6432 66.6871 23.0936C68.9283 21.9888 70.8706 21.1101 70.9702 21.1101C71.0947 21.1101 71.5678 21.8884 72.041 22.8425C72.5141 23.7966 73.0868 24.6252 73.311 24.7256C74.0082 25.0018 74.581 24.9013 74.9794 24.4243C75.6517 23.6962 78.9139 17.1932 78.9139 16.666C78.9139 15.4608 78.2415 15.1344 74.2821 14.4565C69.7251 13.7032 69.5757 13.7032 68.9532 14.3309ZM73.9086 16.3396C75.4525 16.6157 76.7723 16.8668 76.7972 16.8919C76.847 16.9421 76.2245 18.2729 75.4276 19.8547L73.9833 22.7421L72.3398 19.4027C71.4433 17.5949 70.6963 16.0383 70.6963 15.9629C70.6963 15.7872 70.771 15.7872 73.9086 16.3396Z" fill="#3F4B7D"/>
<path d="M73.8592 27.3114C73.7596 27.3868 73.6849 35.4213 73.6849 45.138V62.7889H72.0663H70.4477V50.5362C70.4477 41.0957 70.373 38.1831 70.124 37.8567C69.85 37.455 69.3769 37.4299 65.8409 37.4801L61.8566 37.5554L61.7819 50.1596L61.7321 62.7889H59.989H58.2458V52.2938C58.2458 44.4601 58.1711 41.7234 57.947 41.4974C57.7478 41.2965 56.5027 41.1961 53.9876 41.1961C50.9745 41.1961 50.2524 41.2714 49.9287 41.5978C49.58 41.9242 49.5302 43.2549 49.5302 52.3942V62.7889H47.9116H46.293L46.2432 54.4279L46.1685 46.0921L42.2091 46.0168C39.5197 45.9666 38.1501 46.0419 37.926 46.2428C37.6521 46.4687 37.5774 48.0505 37.5774 54.6539V62.7889H35.4857C34.3402 62.7889 33.2196 62.8642 32.9955 62.9395C32.4476 63.1655 32.4975 64.22 33.0702 64.5464C33.7425 64.8979 86.2354 64.8979 86.9077 64.5464C87.4306 64.2451 87.5303 63.5421 87.082 63.0902C86.8828 62.8893 85.9614 62.7889 84.5919 62.7889H82.4005V45.2636C82.4005 31.9564 82.3258 27.6629 82.1017 27.437C81.778 27.1106 74.158 26.985 73.8592 27.3114Z" fill="#EE8E15"/>
<path d="M21.5371 83.4527C20.3169 84.683 19.1714 86.7669 18.5489 88.8509C18.1753 90.2067 17.7022 94.1738 17.9761 93.9227C18.0508 93.8474 18.6485 92.2656 19.2959 90.4076C20.4663 87.018 21.5122 84.6328 22.4335 83.3021C23.2553 82.1471 22.7572 82.2475 21.5371 83.4527Z" fill="#3F4B7D"/>
</svg>
