<svg width="104" height="105" viewBox="0 0 104 105" fill="none" xmlns="http://www.w3.org/2000/svg">
<ellipse cx="21.6327" cy="20.7345" rx="19.1952" ry="19.297" fill="#F2A440"/>
<path d="M16.7741 43.3312V50.6553H20.1289V43.855C20.6841 43.8986 21.2394 43.9406 21.8063 43.9406C33.263 43.9406 42.6649 35.0453 43.5271 23.7964H47.6066L50.9614 30.5111H64.7765L60.583 22.1177L64.7765 13.7244H50.9614L47.6066 20.4391H43.5271C42.6649 9.19024 33.263 0.294922 21.8063 0.294922C9.78265 0.294922 0 10.085 0 22.1177C0 32.4148 7.17261 41.0482 16.7741 43.3312ZM53.0364 27.1538L51.3589 23.7964H57.6727L59.3501 27.1538H53.0364ZM53.0364 17.0817H59.3501L57.6727 20.4391H51.3589L53.0364 17.0817ZM21.8063 3.65228C31.4145 3.65228 39.3218 11.0418 40.1723 20.4391H36.8041C35.967 12.8968 29.5644 7.00964 21.8063 7.00964C13.4813 7.00964 6.70964 13.7881 6.70964 22.1177C6.70964 30.4474 13.4813 37.2259 21.8063 37.2259C29.5644 37.2259 35.967 31.3387 36.8041 23.7964H40.1723C39.3218 33.1937 31.4145 40.5832 21.8063 40.5832C11.6328 40.5832 3.35482 32.2989 3.35482 22.1177C3.35482 11.9366 11.6328 3.65228 21.8063 3.65228ZM30.024 20.4391C29.244 16.6134 25.8556 13.7244 21.8063 13.7244C17.1817 13.7244 13.4193 17.4896 13.4193 22.1177C13.4193 26.7459 17.1817 30.5111 21.8063 30.5111C25.8556 30.5111 29.244 27.6221 30.024 23.7964H33.414C32.5954 29.4821 27.7091 33.8685 21.8063 33.8685C15.3332 33.8685 10.0645 28.5975 10.0645 22.1177C10.0645 15.638 15.3332 10.367 21.8063 10.367C27.7091 10.367 32.5954 14.7534 33.414 20.4391H30.024ZM26.5299 23.7964C25.8355 25.7454 23.9903 27.1538 21.8063 27.1538C19.0319 27.1538 16.7741 24.8943 16.7741 22.1177C16.7741 19.3412 19.0319 17.0817 21.8063 17.0817C23.9903 17.0817 25.8355 18.4901 26.5299 20.4391H20.1289V23.7964H26.5299Z" fill="#3F4B7D"/>
<path d="M63.7435 52.3347C63.7435 45.855 58.4748 40.584 52.0016 40.584C45.5285 40.584 40.2598 45.855 40.2598 52.3347C40.2598 58.8128 45.5285 64.0855 52.0016 64.0855C58.4748 64.0855 63.7435 58.8128 63.7435 52.3347ZM52.0016 60.7281C47.377 60.7281 43.6146 56.9629 43.6146 52.3347C43.6146 47.7066 47.377 43.9413 52.0016 43.9413C56.6263 43.9413 60.3887 47.7066 60.3887 52.3347C60.3887 56.9629 56.6263 60.7281 52.0016 60.7281Z" fill="#3F4B7D"/>
<path d="M51.999 47.2974C49.2246 47.2974 46.9668 49.5569 46.9668 52.3334C46.9668 55.1099 49.2246 57.3694 51.999 57.3694C54.7735 57.3694 57.0313 55.1099 57.0313 52.3334C57.0313 49.5569 54.7735 47.2974 51.999 47.2974ZM51.999 54.0121C51.0731 54.0121 50.3216 53.2584 50.3216 52.3334C50.3216 51.4084 51.0731 50.6547 51.999 50.6547C52.925 50.6547 53.6764 51.4084 53.6764 52.3334C53.6764 53.2584 52.925 54.0121 51.999 54.0121Z" fill="#3F4B7D"/>
<path d="M58.3373 67.6504C59.0653 67.3499 59.847 67.4456 60.481 67.9206L61.6435 68.7952L68.4454 61.9882L67.5715 60.8249C67.0984 60.192 66.9995 59.4097 67.3014 58.6795C67.605 57.9476 68.2273 57.4658 69.009 57.355L70.4499 57.1469V47.5213L69.0107 47.3149C68.2273 47.2024 67.6067 46.7206 67.3031 45.9887C67.0011 45.2585 67.1001 44.4762 67.5731 43.845L68.4471 42.68L61.6452 35.873L60.4827 36.7476C59.8487 37.221 59.0653 37.32 58.339 37.0179C57.6076 36.7157 57.1262 36.0929 57.0155 35.3106L56.8075 33.8687H47.1892L46.9829 35.3106C46.8722 36.0929 46.3891 36.714 45.6595 37.0179C44.9315 37.32 44.1498 37.2227 43.5157 36.7476L42.3533 35.873L35.5514 42.68L36.4253 43.845C36.8983 44.4762 36.9973 45.2585 36.6954 45.9887C36.3918 46.7189 35.7711 47.2024 34.9878 47.3149L33.5469 47.5213V57.1469L34.9861 57.3534C35.7678 57.4642 36.3901 57.9476 36.6937 58.6778C36.9956 59.4097 36.8967 60.1903 36.4236 60.8232L35.5497 61.9865L42.3516 68.7936L43.514 67.919C44.1481 67.4439 44.9315 67.3482 45.6578 67.6487C46.3891 67.9525 46.8705 68.5753 46.9813 69.3576L47.1892 70.7996H56.8075L57.0138 69.3593C57.1262 68.577 57.6076 67.9542 58.3373 67.6504ZM54.0985 67.4422H49.8983C49.3363 66.1463 48.2963 65.1105 46.9427 64.5482C45.589 63.9892 44.1229 63.9841 42.8062 64.5029L39.8372 61.5316C40.3572 60.2172 40.3521 58.7484 39.7919 57.392C39.2299 56.0373 38.1967 54.9965 36.9 54.4341V50.2307C38.195 49.6701 39.2299 48.6276 39.7919 47.2729C40.3521 45.9182 40.3555 44.4494 39.8372 43.135L42.8062 40.162C44.1229 40.6807 45.589 40.6774 46.9427 40.115C48.2963 39.5543 49.3363 38.5186 49.8983 37.2227H54.0985C54.6604 38.5186 55.7004 39.5543 57.0541 40.115C58.4078 40.6774 59.8738 40.6807 61.1906 40.162L64.1596 43.135C63.6413 44.4494 63.6446 45.9182 64.2049 47.2729C64.7668 48.6276 65.8001 49.6684 67.0967 50.2307V54.4341C65.8018 54.9965 64.7668 56.0373 64.2049 57.392C63.6446 58.7484 63.6396 60.2172 64.1596 61.5316L61.1906 64.5029C59.8738 63.9808 58.4078 63.9892 57.0541 64.5482C55.7004 65.1105 54.6604 66.1463 54.0985 67.4422Z" fill="#3F4B7D"/>
<ellipse cx="18.3827" cy="84.5162" rx="15.539" ry="15.4376" fill="white"/>
<ellipse cx="85.412" cy="71.0084" rx="15.539" ry="16.5548" fill="#F2A440"/>
<rect x="80.2324" y="88.9854" width="11.1718" height="10.9688" fill="#EE8E15"/>
<path d="M20.1296 77.8235V74.1572H16.7747V77.5146H13.4199V82.5506C13.4199 85.3272 15.6777 87.5867 18.4522 87.5867C19.3781 87.5867 20.1296 88.3387 20.1296 89.2653V90.944H18.4522C17.5262 90.944 16.7747 90.192 16.7747 89.2653V87.5867H13.4199V89.2653C13.4199 91.451 14.8273 93.2975 16.7747 93.9925V97.6587H20.1296V94.3014H23.4844V89.2653C23.4844 86.4888 21.2266 84.2293 18.4522 84.2293C17.5262 84.2293 16.7747 83.4773 16.7747 82.5506V80.8719H18.4522C19.3781 80.8719 20.1296 81.624 20.1296 82.5506V84.2293H23.4844V82.5506C23.4844 80.365 22.077 78.5184 20.1296 77.8235Z" fill="#3F4B7D"/>
<path d="M20.1289 67.5274V64.0845H16.7741V67.5274C7.38396 68.3785 0 76.2918 0 85.9073C0 96.0885 8.27802 104.373 18.4515 104.373C28.0597 104.373 35.967 96.9832 36.8175 87.586H43.6127V84.2286H36.8175C36.0173 75.3853 28.9655 68.3282 20.1289 67.5274ZM18.4515 101.015C10.1265 101.015 3.35482 94.2386 3.35482 85.9073C3.35482 77.576 10.1265 70.7992 18.4515 70.7992C26.7765 70.7992 33.5482 77.576 33.5482 85.9073C33.5482 94.2386 26.7765 101.015 18.4515 101.015Z" fill="#3F4B7D"/>
<path d="M16.7734 54.0127H20.1283V60.7281H16.7734V54.0127Z" fill="#3F4B7D"/>
<path d="M46.9668 84.2285H53.6764V87.5855H46.9668V84.2285Z" fill="#3F4B7D"/>
<path d="M57.0312 84.2285H63.7409V87.5855H57.0312V84.2285Z" fill="#3F4B7D"/>
<path d="M87.2266 54.0977V47.2974H83.8718V54.0977C74.4816 54.9488 67.0977 62.8621 67.0977 72.4775C67.0977 76.7716 68.4983 80.8709 71.0178 84.2283H67.0977V87.5857H74.2048L77.1621 90.0516V95.979C77.1621 100.607 80.9245 104.372 85.5492 104.372C90.1738 104.372 93.9362 100.607 93.9362 95.979V90.0516L96.9555 87.5353C101.433 83.7986 104.001 78.3126 104.001 72.4775C104.001 62.8621 96.6167 54.9488 87.2266 54.0977ZM80.5169 90.943H90.5814V94.3004H80.5169V90.943ZM80.5169 74.1562H78.8395C77.9136 74.1562 77.1621 73.4042 77.1621 72.4775C77.1621 71.5509 77.9136 70.7989 78.8395 70.7989C79.7655 70.7989 80.5169 71.5509 80.5169 72.4775V74.1562ZM87.2266 87.5857H83.8718V77.5136H87.2266V87.5857ZM85.5492 101.015C83.3652 101.015 81.52 99.6067 80.8256 97.6577H90.2711C89.5783 99.6067 87.7332 101.015 85.5492 101.015ZM94.8085 84.9552L91.6516 87.5857H90.5814V77.5136H92.2588C95.0332 77.5136 97.291 75.2541 97.291 72.4775C97.291 69.701 95.0332 67.4415 92.2588 67.4415C89.4844 67.4415 87.2266 69.701 87.2266 72.4775V74.1562H83.8718V72.4775C83.8718 69.701 81.614 67.4415 78.8395 67.4415C76.0651 67.4415 73.8073 69.701 73.8073 72.4775C73.8073 75.2541 76.0651 77.5136 78.8395 77.5136H80.5169V87.5857H79.4467L76.2915 84.9552C72.5811 81.8597 70.4525 77.3121 70.4525 72.4775C70.4525 64.1463 77.2242 57.3694 85.5492 57.3694C93.8741 57.3694 100.646 64.1463 100.646 72.4775C100.646 77.3121 98.5172 81.8597 94.8085 84.9552ZM90.5814 74.1562V72.4775C90.5814 71.5509 91.3329 70.7989 92.2588 70.7989C93.1847 70.7989 93.9362 71.5509 93.9362 72.4775C93.9362 73.4042 93.1847 74.1562 92.2588 74.1562H90.5814Z" fill="#3F4B7D"/>
<path d="M73.8073 0.294922V20.4391H67.0977V23.7964H73.8073V37.2259H83.8718V43.9406H87.2266V37.2259H104.001V0.294922H73.8073ZM100.646 33.8685H77.1621V3.65228H100.646V33.8685Z" fill="#3F4B7D"/>
<path d="M97.2897 20.4395H93.9349V27.1542H90.5801V20.4395H87.2253V27.1542H83.8704V23.7968H80.5156V30.5115H97.2897V20.4395Z" fill="#EE8E15"/>
<path d="M80.5156 7.0083H87.2253V10.3653H80.5156V7.0083Z" fill="#3F4B7D"/>
<path d="M90.582 7.0083H97.2917V10.3653H90.582V7.0083Z" fill="#3F4B7D"/>
<path d="M80.5156 13.7256H97.2897V17.0826H80.5156V13.7256Z" fill="#3F4B7D"/>
</svg>
