<svg width="90" height="93" viewBox="0 0 90 93" fill="none" xmlns="http://www.w3.org/2000/svg">
<path d="M81.2597 7.06899C81.5394 7.3072 81.8153 7.5496 82.0874 7.79634C82.2227 7.91091 82.3581 8.0255 82.4974 8.14355C84.7553 10.1917 85.9482 13.1422 86.1326 16.1445C86.2326 19.4271 85.2435 22.487 83.0406 24.9394C81.0426 27.0544 78.2308 28.598 75.2886 28.7312C71.7063 28.7934 68.5135 28.1441 65.7772 25.622C63.7736 23.4724 62.2226 20.8327 62.2226 17.8287C59.9712 17.8287 57.7199 17.8287 55.4003 17.8287C55.4003 26.9001 55.4003 35.9715 55.4003 45.3177C57.6517 45.3177 59.903 45.3177 62.2226 45.3177C62.2888 44.7218 62.355 44.1258 62.4232 43.5119C63.2501 40.2535 65.2362 37.7067 68.0895 35.9875C68.9197 35.5366 69.7526 35.1777 70.6501 34.8839C70.7867 34.8388 70.9234 34.7934 71.0641 34.7469C74.0544 33.9256 77.4086 34.4863 80.0981 35.9303C83.0973 37.7677 84.9817 40.3962 85.8624 43.7878C86.5763 47.2718 85.8325 50.588 83.8933 53.5443C82.4027 55.6359 80.122 57.2062 77.673 57.9586C77.4726 58.0258 77.4726 58.0258 77.2679 58.0942C74.1072 58.9825 70.7302 58.2883 67.9075 56.7579C65.2184 55.1311 63.3683 52.5872 62.4602 49.5933C62.294 48.8885 62.2226 48.2502 62.2226 47.5248C59.9712 47.5248 57.7199 47.5248 55.4003 47.5248C55.4003 56.5962 55.4003 65.6676 55.4003 75.0138C57.6517 75.0138 59.903 75.0138 62.2226 75.0138C62.2888 74.3517 62.355 73.6895 62.4232 73.0073C63.2652 69.9181 65.279 67.3022 67.9914 65.6084C70.8152 64.0927 74.1066 63.6498 77.2466 64.392C80.7439 65.5759 83.4497 67.6688 85.0973 71.0008C86.4489 74.4265 86.4437 77.86 85.0401 81.256C84.3372 82.6421 83.3803 83.7497 82.2881 84.8456C82.1795 84.959 82.0708 85.0721 81.959 85.1889C79.8808 87.1725 76.8885 88.0227 74.0863 88.1439C70.5004 88.0384 67.3885 86.4921 64.9063 83.9427C63.3842 82.117 62.2226 79.6061 62.2226 77.2209C61.9776 77.2252 61.7326 77.2294 61.4802 77.2338C60.5708 77.2482 59.6614 77.2575 58.7519 77.2651C58.3584 77.2691 57.9647 77.2745 57.5712 77.2815C57.0054 77.2914 56.4397 77.2958 55.8739 77.2994C55.61 77.3056 55.61 77.3056 55.3411 77.3118C55.0941 77.312 55.0941 77.312 54.8421 77.312C54.6978 77.3138 54.5533 77.3157 54.4047 77.3175C53.8045 77.1758 53.5788 76.8929 53.1931 76.4183C53.0944 75.8684 53.0944 75.8684 53.0966 75.2249C53.0956 74.9807 53.0944 74.7365 53.0934 74.4849C53.0962 74.215 53.099 73.9449 53.102 73.6749C53.1022 73.3901 53.1022 73.1054 53.1016 72.8207C53.1014 72.0478 53.1062 71.2753 53.1118 70.5026C53.1169 69.695 53.1173 68.8874 53.1183 68.0796C53.1207 66.5504 53.1273 65.0213 53.1353 63.4919C53.1444 61.7509 53.1488 60.0098 53.1528 58.2688C53.1612 54.6874 53.1753 51.1062 53.1931 47.5248C52.8697 47.5297 52.8697 47.5297 52.5396 47.5345C51.7398 47.5453 50.94 47.5523 50.1399 47.558C49.7938 47.561 49.4475 47.5652 49.1011 47.5704C48.6037 47.5776 48.1061 47.581 47.6085 47.5836C47.3761 47.5882 47.3761 47.5882 47.1391 47.5931C46.0697 47.5935 46.0697 47.5935 45.5708 47.2516C45.2773 46.777 45.2857 46.4664 45.3676 45.9196C45.5708 45.591 45.5708 45.591 45.9695 45.3177C46.5314 45.2653 47.0476 45.2477 47.6085 45.2589C47.768 45.2599 47.9275 45.2607 48.0919 45.2615C48.6009 45.2649 49.11 45.2726 49.619 45.2802C49.9642 45.2832 50.3095 45.2858 50.6548 45.2884C51.501 45.295 52.3471 45.3055 53.1931 45.3177C53.1927 45.1694 53.1925 45.0211 53.1921 44.8682C53.1833 41.2612 53.1765 37.6543 53.1724 34.0472C53.1702 32.303 53.1674 30.5585 53.1628 28.8143C53.159 27.2942 53.1564 25.7743 53.1554 24.2541C53.155 23.4491 53.1536 22.6439 53.1508 21.8389C53.148 21.0815 53.1472 20.324 53.1478 19.5666C53.1478 19.2883 53.147 19.01 53.1454 18.7317C53.1434 18.3522 53.1442 17.973 53.145 17.5936C53.1446 17.3811 53.1441 17.1686 53.1437 16.9495C53.1931 16.4242 53.1931 16.4242 53.5944 15.8223C54.1376 15.6413 54.445 15.5971 55.0016 15.5989C55.1621 15.5989 55.3229 15.5989 55.4884 15.5989C55.747 15.6005 55.747 15.6005 56.0109 15.6021C56.1883 15.6023 56.3655 15.6026 56.5483 15.6029C57.1145 15.604 57.6808 15.6066 58.2472 15.6091C58.6311 15.6101 59.0151 15.611 59.399 15.6119C60.3402 15.6141 61.2815 15.6175 62.2226 15.6217C62.235 15.4991 62.2473 15.3765 62.2599 15.2502C62.2768 15.0886 62.2936 14.927 62.3111 14.7606C62.3275 14.6007 62.344 14.4409 62.3608 14.2762C62.6977 11.7918 64.2982 9.16537 66.2357 7.59569C70.7047 4.32383 76.6292 3.58624 81.2597 7.06899Z" fill="#3F4B7D"/>
<path d="M32.7469 23.9284C34.8943 25.6121 36.2499 28.317 36.6839 30.9762C36.9903 33.6332 36.4855 36.472 34.9352 38.6958C34.8321 38.8475 34.729 38.9994 34.6226 39.1559C33.8035 40.2852 32.8615 41.1046 31.7248 41.9062C32.2922 42.2842 32.837 42.5166 33.4703 42.7602C38.4475 44.6898 42.5441 48.5194 44.7715 53.3898C46.9799 58.5487 47.1802 63.9989 45.3819 69.3113C45.1472 69.8454 44.9836 70.1861 44.5667 70.5991C44.0414 70.6791 43.5995 70.7066 43.074 70.6996C42.9205 70.7006 42.7672 70.7018 42.6093 70.703C42.094 70.7056 41.5789 70.7026 41.0634 70.6996C40.6946 70.7004 40.326 70.7016 39.9572 70.703C38.9544 70.7058 37.9515 70.7034 36.9486 70.7002C35.9006 70.6974 34.8524 70.6988 33.8041 70.6994C32.0438 70.7 30.2834 70.6972 28.5231 70.6926C26.486 70.6871 24.4492 70.6869 22.4123 70.6892C20.455 70.6914 18.4978 70.6902 16.5404 70.6873C15.7065 70.6861 14.8725 70.6861 14.0384 70.6871C13.0569 70.6882 12.0754 70.6861 11.0938 70.6817C10.7329 70.6805 10.3721 70.6805 10.0112 70.6815C9.51978 70.6827 9.02852 70.6801 8.5371 70.6767C8.32133 70.6785 8.32133 70.6785 8.10123 70.6803C7.53139 70.6731 7.14054 70.6667 6.66647 70.3332C6.30762 69.7951 6.12294 69.2034 5.92812 68.5926C5.84509 68.3442 5.76206 68.096 5.67652 67.8401C4.15563 62.6774 4.88128 57.1122 7.24492 52.34C9.80666 47.657 13.6649 44.5785 18.4815 42.5082C18.618 42.4494 18.7542 42.3906 18.8947 42.33C19.2249 42.1881 19.5556 42.0471 19.8861 41.9062C19.7721 41.8233 19.658 41.7407 19.5406 41.6554C17.1353 39.8566 15.3862 37.508 14.8697 34.4822C14.5296 31.027 15.2283 27.9408 17.4469 25.1957C21.6356 20.7327 27.8587 20.6544 32.7469 23.9284Z" fill="#3F4B7D"/>
<path d="M24.096 43.5113C23.9738 44.2128 23.7908 44.8324 23.5196 45.4901C23.4425 45.6783 23.3657 45.8667 23.2864 46.0606C23.2033 46.2616 23.1203 46.4627 23.0348 46.6699C22.8606 47.0991 22.6866 47.5283 22.5129 47.9577C22.2386 48.6325 21.9635 49.3067 21.6858 49.9799C21.4175 50.6312 21.1536 51.2839 20.8904 51.937C20.8065 52.1372 20.7228 52.3375 20.6363 52.5438C20.2092 53.613 19.8997 54.411 20.2836 55.5503C20.6177 56.0011 20.9187 56.3547 21.3144 56.7407C21.4701 56.898 21.4701 56.898 21.6288 57.0588C21.8477 57.2785 22.0682 57.4968 22.2901 57.7137C22.6287 58.0456 22.9601 58.3834 23.2916 58.7225C23.5057 58.936 23.7204 59.1491 23.9355 59.3618C24.0338 59.4627 24.1324 59.5637 24.2339 59.6676C24.7074 60.1223 25.0502 60.355 25.6951 60.4973C26.5306 60.3167 26.9881 59.8576 27.5692 59.2669C27.6838 59.1539 27.7983 59.041 27.9163 58.9246C28.1571 58.6856 28.3963 58.445 28.6341 58.2031C28.9988 57.8335 29.3701 57.4713 29.7423 57.1091C29.9756 56.8758 30.2086 56.642 30.441 56.4077C30.5523 56.2997 30.6639 56.192 30.7785 56.0808C31.1282 55.7337 31.1282 55.7337 31.5203 55.149C31.4519 54.3392 31.2329 53.6431 30.9285 52.8937C30.8483 52.6942 30.7678 52.4948 30.6852 52.2893C30.5983 52.0772 30.5116 51.8654 30.4223 51.647C30.3334 51.4269 30.2447 51.2068 30.1532 50.9803C29.8701 50.2792 29.5856 49.579 29.3006 48.8787C29.0151 48.1754 28.7302 47.4721 28.4458 46.7685C28.2691 46.3308 28.0915 45.8936 27.9133 45.4568C27.8336 45.2598 27.754 45.0629 27.6717 44.8599C27.5658 44.5994 27.5658 44.5994 27.4576 44.3336C27.3065 43.9126 27.3065 43.9126 27.3065 43.5113C28.4105 43.4648 29.343 43.6137 30.4042 43.9126C30.5607 43.9566 30.7173 44.0005 30.8784 44.0459C35.7025 45.4813 39.7439 48.6867 42.1953 53.0803C43.8347 56.1095 44.4096 58.9224 44.425 62.3346C44.426 62.5427 44.4272 62.751 44.4284 62.9653C44.4094 65.0089 44.0795 66.6713 43.3589 68.5925C41.1076 68.5925 38.8562 68.5925 36.5367 68.5925C36.5246 68.0879 36.5124 67.5832 36.4999 67.0633C36.4875 66.5766 36.4749 66.0898 36.462 65.603C36.4534 65.2637 36.445 64.9246 36.4369 64.5853C36.4253 64.0987 36.4126 63.6122 36.3996 63.1256C36.3946 62.8967 36.3946 62.8967 36.3894 62.6631C36.4321 61.9568 36.4321 61.9568 36.1353 61.3691C35.6337 61.3356 35.6337 61.3356 35.1321 61.3691C33.4269 63.0742 34.7998 66.1819 34.7308 68.5925C28.8375 68.5925 22.9443 68.5925 16.8725 68.5925C16.7731 65.1162 16.7731 65.1162 16.6718 61.5698C16.4605 61.3149 16.4605 61.3149 15.9822 61.3314C15.4344 61.3151 15.4344 61.3151 15.0666 61.7704C15.0174 62.2871 14.9917 62.7843 14.9835 63.3018C14.9801 63.4356 14.9765 63.5692 14.9729 63.7071C14.9602 64.2067 14.951 64.7067 14.9412 65.2065C14.9165 66.3237 14.8916 67.4412 14.8659 68.5925C12.6146 68.5925 10.3633 68.5925 8.0437 68.5925C6.55586 63.633 6.53134 58.6626 8.84632 53.9451C8.93711 53.7581 9.02789 53.5711 9.12144 53.3783C11.3846 48.981 15.3924 45.701 20.0743 44.1869C21.4231 43.7724 22.6714 43.464 24.096 43.5113Z" fill="white"/>
<path d="M79.1523 37.8547C80.9103 39.0112 82.0831 40.2446 83.0902 42.1058C83.1779 42.2658 83.2656 42.4255 83.3559 42.5902C84.3302 44.7442 84.2696 47.7513 83.4915 49.9562C82.0546 53.0858 80.033 54.6099 76.9718 55.9727C74.7024 56.7785 72.2235 56.4679 70.0476 55.5493C67.3685 54.1625 65.5606 52.1493 64.5547 49.3041C63.8169 46.6724 64.0569 44.1392 65.3408 41.7242C66.918 39.0933 69.0217 37.4526 71.9835 36.6273C74.4717 36.111 76.9515 36.5976 79.1523 37.8547Z" fill="white"/>
<path d="M80.4792 68.392C81.6456 69.3449 82.3876 70.4798 83.0877 71.8031C83.1712 71.9437 83.2547 72.0844 83.3407 72.2295C84.3045 74.1232 84.2134 76.8282 83.7132 78.8571C82.8473 81.4943 80.9662 83.6934 78.4977 84.9707C76.2733 86.0935 73.5199 86.2565 71.104 85.6659C70.5167 85.4302 69.9871 85.1677 69.4432 84.8453C69.2794 84.7512 69.1157 84.6569 68.9469 84.56C66.6832 83.1542 65.218 81.1656 64.4268 78.6252C63.7656 75.5604 64.371 72.8095 66.032 70.1979C67.3792 68.2327 69.7722 66.6934 72.1183 66.2491C75.2893 65.8685 77.9241 66.4564 80.4792 68.392Z" fill="white"/>
<path d="M73.9224 6.90709C74.0885 6.90859 74.2546 6.91012 74.4258 6.91168C77.304 6.98851 79.7098 8.24963 81.6773 10.3213C83.242 12.1796 84.0097 14.1675 83.9802 16.5885C83.9786 16.764 83.977 16.9396 83.9756 17.1206C83.9094 19.7284 82.9217 21.996 81.1333 23.8995C79.264 25.6522 76.9352 26.6749 74.3612 26.7463C71.2478 26.6372 68.857 25.6127 66.636 23.4481C64.6479 20.965 64.0104 18.1393 64.2281 15.0208C64.7352 12.4701 66.2361 10.0781 68.4003 8.62515C70.2014 7.5295 71.8028 6.87962 73.9224 6.90709Z" fill="white"/>
<path d="M31.2337 25.4744C32.8719 26.755 34.0969 28.6196 34.5313 30.6716C34.7909 33.6405 34.4458 35.9726 32.5914 38.381C31.8012 39.2544 30.9217 39.8975 29.9162 40.5035C29.7689 40.5948 29.6219 40.6861 29.4702 40.7802C28.319 41.3628 27.1558 41.3809 25.8905 41.3939C25.6378 41.397 25.6379 41.397 25.3802 41.4002C23.0646 41.3675 20.9963 40.4166 19.319 38.823C17.5352 36.9012 16.7079 34.6036 16.7976 31.9799C17.092 29.2446 18.3194 27.1629 20.407 25.4054C23.7802 22.9308 27.8206 23.1312 31.2337 25.4744Z" fill="#9AC8FE"/>
<path d="M16.9535 3.07464C18.4268 4.10814 19.486 5.58285 19.8348 7.3698C20.109 9.7331 19.7168 11.6387 18.2829 13.5617C17.6362 14.2859 16.9247 14.766 16.0717 15.2194C15.9533 15.2874 15.8349 15.3555 15.7127 15.4255C14.2453 16.1269 12.2124 16.0434 10.6588 15.6826C10.1576 15.4972 9.71251 15.2849 9.24946 15.0188C9.10797 14.9383 8.96649 14.8579 8.82072 14.775C7.43961 13.8674 6.41769 12.3905 5.95119 10.8051C5.55989 8.67478 5.84364 6.68665 6.97954 4.83582C9.31174 1.5869 13.6476 1.04154 16.9535 3.07464Z" fill="#3F4B7D"/>
<path d="M1.58868 75.9625C1.83596 75.9639 1.83596 75.9639 2.08825 75.9653C2.35012 75.9643 2.35012 75.9643 2.61729 75.9633C3.20578 75.9617 3.7942 75.9631 4.38266 75.9643C4.80315 75.9637 5.22362 75.9631 5.64412 75.9621C6.78873 75.9603 7.93333 75.9611 9.07794 75.9623C10.2735 75.9633 11.469 75.9623 12.6646 75.9617C14.6727 75.9611 16.6806 75.9621 18.6886 75.9639C21.0131 75.9661 23.3377 75.9653 25.6621 75.9631C27.6546 75.9613 29.6473 75.9611 31.6398 75.9621C32.8313 75.9627 34.0228 75.9629 35.2143 75.9615C36.3342 75.9603 37.4542 75.9611 38.5741 75.9635C38.986 75.9641 39.3982 75.9639 39.8103 75.9629C40.3707 75.9619 40.9312 75.9633 41.4916 75.9653C41.7388 75.9639 41.7388 75.9639 41.991 75.9625C43.1139 75.9703 43.1139 75.9703 43.561 76.4177C43.6362 77.0072 43.6362 77.0072 43.561 77.622C43.0647 78.1742 42.7521 78.2248 42.0069 78.2994C41.6963 78.3024 41.3857 78.302 41.075 78.2992C40.9037 78.3 40.7323 78.3008 40.5557 78.3016C39.9807 78.3036 39.4056 78.3012 38.8303 78.2988C38.4184 78.2994 38.0062 78.3 37.5943 78.301C36.4746 78.303 35.3548 78.301 34.2351 78.2984C33.0645 78.2962 31.8937 78.297 30.723 78.2974C28.7568 78.2974 26.7906 78.2952 24.8246 78.2916C22.55 78.2874 20.2753 78.2866 18.0007 78.288C15.8146 78.289 13.6283 78.288 11.4421 78.2856C10.5108 78.2848 9.57956 78.2846 8.6483 78.285C7.55208 78.2854 6.45589 78.2838 5.35969 78.2806C4.95685 78.2797 4.55402 78.2796 4.15118 78.2802C3.60231 78.2808 3.0535 78.2789 2.50463 78.2763C2.2642 78.2775 2.2642 78.2775 2.01892 78.2787C1.25689 78.2727 0.66464 78.2533 0.0188114 77.8227C-0.00627047 77.1453 -0.00627047 77.1453 0.0188114 76.4177C0.536301 75.9001 0.883414 75.9675 1.58868 75.9625Z" fill="#EE8E15"/>
<path d="M19.9397 80.7565C20.0872 80.7554 20.2349 80.7544 20.387 80.7536C20.8818 80.7512 21.3764 80.753 21.8713 80.755C22.226 80.7542 22.5806 80.753 22.9353 80.7518C23.8987 80.749 24.8622 80.75 25.8256 80.752C26.8333 80.7534 27.8409 80.752 28.8484 80.7512C30.5408 80.75 32.2329 80.7514 33.9252 80.7544C35.8824 80.7577 37.8396 80.7566 39.797 80.7532C41.4765 80.7506 43.1559 80.7502 44.8356 80.7516C45.8391 80.7526 46.8426 80.7528 47.8461 80.7508C48.7895 80.749 49.7328 80.7502 50.6763 80.7538C51.0228 80.7546 51.3694 80.7542 51.7159 80.753C52.1882 80.7514 52.6606 80.7534 53.1331 80.7565C53.5298 80.7567 53.5298 80.7567 53.9347 80.7571C54.6302 80.8369 54.9217 80.9284 55.3979 81.435C55.4731 82.0495 55.4731 82.0495 55.3979 82.6392C54.9101 83.127 54.6523 83.0891 53.9865 83.0951C53.8452 83.0943 53.704 83.0935 53.5585 83.0927C53.4086 83.0935 53.2587 83.0943 53.1042 83.0951C52.5994 83.0971 52.0947 83.0963 51.5899 83.0955C51.2291 83.0965 50.8681 83.0975 50.5073 83.0987C49.5251 83.1014 48.5431 83.1016 47.5609 83.101C46.7423 83.1008 45.9234 83.1018 45.1045 83.1028C43.1734 83.105 41.2421 83.105 39.311 83.1038C37.3163 83.1026 35.3218 83.1052 33.3271 83.1094C31.6167 83.113 29.9063 83.1142 28.1959 83.1134C27.1736 83.1132 26.151 83.1136 25.1285 83.1164C24.1672 83.119 23.2058 83.1186 22.2445 83.116C21.8911 83.1154 21.5378 83.116 21.1844 83.1176C20.703 83.1198 20.2219 83.1182 19.7405 83.1156C19.5996 83.117 19.4588 83.1186 19.3137 83.12C18.7408 83.1136 18.3648 83.103 17.8899 82.7662C17.5764 82.2883 17.5772 81.9931 17.6748 81.435C18.3588 80.7245 18.9868 80.7573 19.9397 80.7565Z" fill="#EE8E15"/>
<path d="M15.6368 4.6882C16.6389 5.37856 17.1937 6.28463 17.6754 7.3946C17.8982 8.96135 17.7994 10.4025 16.9974 11.7838C16.2089 12.8176 15.146 13.5638 13.863 13.8154C12.2492 14.0021 10.978 13.7802 9.64924 12.8121C8.50863 11.6409 7.98683 10.477 7.96875 8.83677C7.99403 7.41384 8.20073 6.50396 9.15623 5.4469C11.006 3.70725 13.426 3.44448 15.6368 4.6882Z" fill="#99C8FE"/>
<path d="M61.0541 85.1596C62.1328 85.7734 62.9423 86.623 63.3239 87.8184C63.5601 89.0594 63.2434 90.2161 62.6969 91.3302C61.8976 92.2346 61.2042 92.7816 59.9872 92.9701C58.5307 93.0309 57.4985 92.8557 56.4013 91.8696C55.56 91.0061 55.2451 90.1787 55.1348 88.9849C55.2449 87.7059 55.6549 86.546 56.602 85.6488C58.0292 84.7729 59.4884 84.4721 61.0541 85.1596Z" fill="#3F4B7D"/>
<path d="M25.7016 45.1162C26.0276 45.6054 26.2445 46.0121 26.4679 46.5474C26.5375 46.7134 26.6069 46.8795 26.6786 47.0507C26.991 47.8067 27.303 48.5628 27.6126 49.32C27.7765 49.7197 27.9421 50.1188 28.1088 50.5175C28.3492 51.092 28.5856 51.6682 28.8211 52.2447C28.8964 52.4231 28.9718 52.6014 29.0497 52.785C29.1167 52.9518 29.1837 53.1185 29.2528 53.2903C29.313 53.4363 29.3733 53.5824 29.4354 53.7331C29.5383 54.273 29.4044 54.4924 29.1127 54.948C28.8753 55.2171 28.6269 55.4769 28.3711 55.7288C28.2276 55.871 28.0841 56.0133 27.9361 56.1597C27.7864 56.3062 27.6367 56.4525 27.4824 56.6034C27.2554 56.8277 27.2554 56.8277 27.0239 57.0564C26.6509 57.4246 26.2768 57.792 25.9022 58.1584C24.9407 57.7244 24.2809 57.0428 23.5319 56.3149C23.3902 56.185 23.2488 56.055 23.1029 55.9212C22.97 55.7916 22.8372 55.6621 22.7004 55.5289C22.5782 55.4127 22.4562 55.2964 22.3306 55.1768C21.9549 54.507 22.1153 54.0804 22.2904 53.3428C22.5027 52.7032 22.7501 52.0807 23.0052 51.4571C23.1109 51.1935 23.1109 51.1935 23.2189 50.9246C23.3671 50.5558 23.5162 50.1872 23.6661 49.8188C23.8963 49.2528 24.1242 48.686 24.3518 48.1189C24.4964 47.7602 24.6411 47.4014 24.786 47.0428C24.8546 46.8727 24.9232 46.7025 24.9939 46.5272C25.4772 45.3403 25.4772 45.3403 25.7016 45.1162Z" fill="#98C7FE"/>
<path d="M69.9196 41.2334C70.6055 41.3264 70.8166 41.5565 71.2931 42.0513C71.4438 42.2052 71.5945 42.3591 71.7496 42.5176C71.9812 42.7616 71.9812 42.7616 72.2171 43.0106C72.3754 43.1733 72.5336 43.3361 72.6965 43.5036C73.0868 43.9057 73.4744 44.3098 73.8601 44.7161C74.492 44.4388 74.8911 44.1232 75.3572 43.6172C75.5488 43.4155 75.5488 43.4155 75.7444 43.2096C76.0099 42.9263 76.2738 42.6416 76.536 42.3553C77.5154 41.3326 77.5154 41.3326 78.3451 41.1875C78.8765 41.3051 78.8765 41.3051 79.2778 41.7064C79.3522 42.1775 79.3522 42.1775 79.2778 42.7096C78.9463 43.1551 78.9463 43.1551 78.4876 43.5977C78.3247 43.7574 78.1617 43.9171 77.994 44.0817C77.8216 44.2456 77.6495 44.4093 77.4719 44.5781C77.2995 44.7458 77.1274 44.9136 76.9498 45.0865C76.524 45.5005 76.0962 45.9118 75.666 46.3213C76.2529 47.031 76.8458 47.7198 77.5142 48.3545C77.619 48.454 77.7237 48.5535 77.8317 48.6563C78.0466 48.8583 78.2629 49.059 78.4806 49.2582C78.9628 49.7209 79.2571 50.0145 79.3735 50.6838C79.2778 51.1369 79.2778 51.1369 78.8765 51.5382C78.1752 51.6259 77.8104 51.6341 77.2227 51.225C77.0862 51.0821 76.9496 50.9393 76.8087 50.792C76.5838 50.5612 76.5838 50.5612 76.3542 50.3257C76.2015 50.1629 76.049 50.0002 75.8917 49.8327C75.7344 49.6699 75.5773 49.5072 75.4152 49.3397C75.0277 48.938 74.6434 48.5339 74.2614 48.1272C73.6295 48.4049 73.2264 48.7225 72.7573 49.2261C72.6287 49.3605 72.4999 49.495 72.3674 49.6336C72.0995 49.9171 71.8331 50.2021 71.5678 50.488C71.439 50.6218 71.31 50.7559 71.1771 50.8939C71.0614 51.0175 70.9456 51.1409 70.8264 51.2683C70.3336 51.6209 70.039 51.6189 69.4457 51.5382C69.0444 51.1369 69.0444 51.1369 68.9727 50.5638C69.0596 49.7994 69.2414 49.5943 69.7906 49.0692C70.0214 48.8443 70.0214 48.8443 70.2569 48.6147C70.4197 48.462 70.5824 48.3095 70.7499 48.1522C70.9127 47.9949 71.0754 47.8378 71.2429 47.6757C71.6447 47.2882 72.0488 46.904 72.4555 46.522C71.5343 45.4094 70.5487 44.4386 69.4848 43.4613C69.0444 42.9103 69.0444 42.9103 68.9551 42.2652C69.0674 41.5625 69.2035 41.3418 69.9196 41.2334Z" fill="#E87187"/>
<path d="M79.5408 72.8251C80.0798 73.0055 80.0798 73.0055 80.2805 73.2062C80.3892 73.7151 80.3892 73.7151 80.2805 74.4102C79.8354 75.0395 79.292 75.5625 78.7426 76.1011C78.5851 76.2592 78.4276 76.4173 78.2655 76.5803C77.9318 76.9138 77.5967 77.2459 77.2604 77.5766C76.7461 78.0829 76.2381 78.5948 75.7304 79.1075C75.4055 79.431 75.0803 79.7541 74.7546 80.0768C74.6027 80.2301 74.451 80.3832 74.2947 80.5411C73.6807 81.1389 73.2152 81.5744 72.4078 81.8804C71.6669 81.8198 71.429 81.5868 70.9085 81.0629C70.7413 80.8957 70.574 80.7286 70.4018 80.5562C70.2309 80.3782 70.0601 80.2 69.8841 80.0166C69.7093 79.8438 69.5346 79.6712 69.3546 79.4932C67.891 78.0022 67.891 78.0022 67.8398 76.8183C68.2412 76.4169 68.2412 76.4169 68.7757 76.3042C69.7844 76.4741 70.2485 77.0902 70.9249 77.8216C71.0535 77.9557 71.182 78.0897 71.3144 78.2278C71.6306 78.5581 71.943 78.8914 72.2543 79.2263C73.1903 78.4497 74.0577 77.6378 74.8949 76.7563C75.1224 76.5215 75.3502 76.2867 75.5779 76.0521C75.9317 75.6873 76.2838 75.3217 76.6331 74.9526C76.9745 74.5932 77.32 74.2385 77.6665 73.8843C77.7699 73.7729 77.8734 73.6615 77.9801 73.5468C78.5221 73.0005 78.7555 72.8013 79.5408 72.8251Z" fill="#EE8E15"/>
<path d="M79.4391 12.7051C79.8791 12.812 79.8791 12.812 80.2805 13.2134C80.3055 14.1884 80.1007 14.6738 79.453 15.4006C79.1777 15.6839 78.8989 15.9638 78.6172 16.2407C78.3955 16.4641 78.3955 16.4641 78.1694 16.692C77.8567 17.0055 77.5425 17.3175 77.2271 17.628C76.7455 18.1032 76.2708 18.5844 75.7962 19.0666C75.4912 19.3708 75.1858 19.6746 74.88 19.9782C74.6679 20.1939 74.6679 20.1939 74.4516 20.4139C73.8119 21.036 73.3763 21.4018 72.5177 21.6841C71.6718 21.6299 71.4239 21.4144 70.8308 20.8184C70.6534 20.6412 70.476 20.464 70.2933 20.2814C70.1127 20.093 69.9321 19.9044 69.7461 19.7101C69.5593 19.5261 69.3726 19.3423 69.1802 19.1527C68.1685 18.1216 68.1685 18.1216 67.8398 17.6282C67.8713 16.9417 67.9532 16.7121 68.4418 16.2235C68.9996 16.2136 69.3319 16.328 69.7579 16.69C70.221 17.1586 70.6631 17.6442 71.1047 18.1329C71.2155 18.2505 71.326 18.3678 71.4398 18.4888C71.5385 18.5978 71.6372 18.707 71.739 18.8194C72.044 19.0772 72.044 19.0772 72.4352 18.9817C72.9156 18.8111 73.1329 18.6229 73.4841 18.2567C73.6013 18.1363 73.7184 18.0157 73.8392 17.8915C73.9636 17.7608 74.088 17.6302 74.2161 17.4957C74.4831 17.2218 74.7504 16.9481 75.0175 16.6746C75.4368 16.2415 75.8552 15.8079 76.2724 15.3731C76.6759 14.9538 77.0824 14.5377 77.4893 14.1219C77.6133 13.9908 77.7374 13.8598 77.865 13.7247C78.7362 12.8385 78.7362 12.8385 79.4391 12.7051Z" fill="#EE8E15"/>
<path d="M59.7809 86.9566C60.5247 87.1207 60.8108 87.4257 61.2176 88.0556C61.4062 88.8911 61.3036 89.4846 60.929 90.2501C60.2024 90.835 59.5333 90.9536 58.609 90.8647C58.0227 90.5105 57.7103 90.271 57.4051 89.6608C57.2681 88.2677 57.2681 88.2677 57.7938 87.4536C58.5103 86.9857 58.9391 86.9032 59.7809 86.9566Z" fill="#98C7FD"/>
<path d="M6.03924 32.475C6.70595 32.9678 6.99761 33.2628 7.16792 34.0802C6.99761 34.8979 6.70595 35.1926 6.03924 35.6854C5.36138 35.7962 4.9931 35.758 4.37129 35.4723C3.86652 34.8928 3.84509 34.4368 3.83203 33.6789C4.33953 32.5673 4.82812 32.3325 6.03924 32.475Z" fill="#3F4B7D"/>
<path d="M8.45643 84.7451C9.12445 84.8589 9.4027 84.9355 9.84847 85.4474C10.0236 86.1354 10.1152 86.6298 9.91118 87.3159C9.57336 87.7503 9.37657 87.8979 8.8452 88.0559C7.6217 88.0129 7.6217 88.0129 7.05184 87.5165C6.76615 86.8949 6.72799 86.5265 6.83865 85.8487C7.33846 85.1725 7.61837 84.882 8.45643 84.7451Z" fill="#3F4B7D"/>
<path d="M35.7339 9.80277C36.2105 10.016 36.2105 10.016 36.5365 10.4047C36.7372 11.0819 36.7372 11.0819 36.7372 11.8093C36.3543 12.5135 36.1047 12.7546 35.345 13.0132C34.6157 13.0132 34.2994 12.8526 33.7274 12.4112C33.4171 11.7909 33.4677 11.2887 33.5267 10.6054C34.1088 9.69736 34.7043 9.67409 35.7339 9.80277Z" fill="#3F4B7D"/>
<path d="M45.7692 29.6658C46.3352 30.0173 46.379 30.2946 46.5718 30.9449C46.5718 31.6723 46.5718 31.6723 46.1581 32.2618C45.5685 32.6755 45.5685 32.6755 44.9666 32.8009C44.1413 32.6292 43.8435 32.3591 43.3613 31.6723C43.3613 30.9385 43.3989 30.4806 43.8505 29.8915C44.5464 29.3905 44.9431 29.4635 45.7692 29.6658Z" fill="#3F4B7D"/>
<path d="M64.4282 60.1652C64.9172 60.4662 64.9172 60.4662 65.2308 60.9679C65.3532 61.5315 65.3618 62.0106 65.2308 62.5731C64.8169 63.0873 64.8169 63.0873 64.2275 63.3757C63.5317 63.3638 63.0459 63.2974 62.4341 62.9619C62.0817 62.3192 62.0964 61.6707 62.221 60.9679C62.7903 60.0569 63.4031 60.019 64.4282 60.1652Z" fill="#3F4B7D"/>
<path d="M53.757 0.911133C54.3628 0.92201 54.5696 0.95651 55.099 1.28743C55.5171 1.96706 55.5119 2.39755 55.3999 3.18148C55.0865 3.67067 55.0865 3.67067 54.5973 3.98426C53.8629 4.07607 53.3882 4.07684 52.7162 3.75848C52.2599 3.2318 52.2033 2.87071 52.1895 2.17801C52.7691 0.992133 52.7691 0.992133 53.757 0.911133Z" fill="#3F4B7D"/>
<path d="M88.6305 30.4697C89.6322 30.7665 89.6322 30.7665 89.9097 31.2723C90.062 32.6432 90.062 32.6432 89.5837 33.3792C88.9586 33.7738 88.6311 33.7989 87.9032 33.6801C87.3263 33.3667 87.3263 33.3667 86.8999 32.8775C86.7378 31.9864 86.7988 31.6199 87.3136 30.871C87.9032 30.4697 87.9032 30.4697 88.6305 30.4697Z" fill="#3F4B7D"/>
</svg>
