<svg width="96" height="99" viewBox="0 0 96 99" fill="none" xmlns="http://www.w3.org/2000/svg">
<ellipse cx="70.2992" cy="48.7021" rx="16.1" ry="16.166" fill="white"/>
<path d="M16.0004 45.1194H19.2004V37.0806H20.8004V24.2185H19.2004V16.1797H16.0004V24.2185H14.4004V37.0806H16.0004V45.1194Z" fill="#EE8E15"/>
<path d="M32.0004 29.0422H35.2004V21.0034H36.8004V8.14134H35.2004V0.102539H32.0004V8.14134H30.4004V21.0034H32.0004V29.0422Z" fill="#EE8E15"/>
<path d="M47.9984 33.7989L51.1984 30.5818V24.2183H52.7984V11.3562H51.1984V3.31738H47.9984V11.3562H46.3984V24.2183H47.9984V33.7989Z" fill="#EE8E15"/>
<path d="M50.4016 55.6357C50.848 57.2257 51.4688 58.7386 52.2464 60.131L52.6672 60.885L50.8592 64.414L55.9968 69.5765L59.5088 67.7614L60.2576 68.1842C61.6448 68.9624 63.1488 69.5862 64.7312 70.0364L65.5584 70.2711L66.7648 74.059H74.0304L75.2384 70.2711L76.0656 70.0364C77.648 69.5862 79.152 68.9624 80.5392 68.1842L81.288 67.7614L84.8 69.5765L89.9376 64.414L88.1296 60.885L88.5504 60.131C89.3264 58.7386 89.9488 57.2257 90.3952 55.6357L90.6288 54.8044L94.3984 53.5938V46.293L90.6288 45.0807L90.3952 44.2495C89.9504 42.6642 89.328 41.1513 88.5504 39.7526L88.1312 38.9986L89.9376 35.4711L84.8 30.307L81.288 32.1238L80.5392 31.7009C79.152 30.9228 77.648 30.299 76.0656 29.8488L75.2384 29.6141L74.032 25.8262H66.7664L65.5584 29.6141L64.7312 29.8488C63.1488 30.299 61.6448 30.9228 60.2576 31.7009L59.5088 32.1238L55.9968 30.307L50.8592 35.4711L52.6656 38.9986L52.2464 39.7526C51.4672 41.1513 50.8464 42.6642 50.4016 44.2495L50.168 45.0807L46.3984 46.2914V53.5922L50.168 54.8044L50.4016 55.6357ZM70.3984 33.865C79.2352 33.865 86.3984 41.0629 86.3984 49.9426C86.3984 58.8222 79.2352 66.0202 70.3984 66.0202C61.5616 66.0202 54.3984 58.8222 54.3984 49.9426C54.3984 41.0629 61.5616 33.865 70.3984 33.865Z" fill="#3F4B7D"/>
<path d="M72 54.7671H68.8C67.9184 54.7671 67.2 54.0468 67.2 53.1593H64C64 55.8185 66.1536 57.9826 68.8 57.9826V61.1981H72V57.9826C74.6464 57.9826 76.8 55.8185 76.8 53.1593C76.8 50.5001 74.6464 48.336 72 48.336H68.8C67.9184 48.336 67.2 47.6157 67.2 46.7283C67.2 45.8408 67.9184 45.1205 68.8 45.1205H72C72.8816 45.1205 73.6 45.8408 73.6 46.7283H76.8C76.8 44.069 74.6464 41.905 72 41.905V38.6895H68.8V41.905C66.1536 41.905 64 44.069 64 46.7283C64 49.3875 66.1536 51.5515 68.8 51.5515H72C72.8816 51.5515 73.6 52.2718 73.6 53.1593C73.6 54.0468 72.8816 54.7671 72 54.7671Z" fill="#3F4B7D"/>
<path fill-rule="evenodd" clip-rule="evenodd" d="M16 91.7448H22.4V51.8981C21.7424 51.6827 21.048 51.5508 20.3264 51.5508C18.7248 51.5508 17.1984 52.1328 16 53.1489V91.7448ZM25.6 91.7448H32V80.5066C31.4032 79.5162 30.968 78.4117 30.7424 77.2219L26.9136 57.0301C26.7088 55.9497 26.2384 54.9834 25.6 54.1618V91.7448ZM35.2 91.7448H41.6V85.3138H40.4736C38.5456 85.3138 36.7408 84.7318 35.2 83.751V91.7448ZM44.8 91.7448H51.2V80.251L50.144 81.5773C48.7648 83.3105 46.888 84.4954 44.8 85.0147V91.7448ZM54.4 91.7448H60.8V77.275H56.7936C55.9568 77.275 55.1568 77.4647 54.4 77.7557V91.7448ZM64 91.7448H70.4V77.275H64.4336H64V91.7448ZM73.6 91.7448H79.3152L74.08 77.275H73.6V91.7448Z" fill="#EE8E15"/>
<path d="M96 93.3526L86.4 88.5293V91.7448H79.3152H73.6H70.4H64H60.8H54.4H51.2H44.8H41.6H35.2H32H25.6H22.4H16H12.8V57.3404L6.4 66.5271V14.5723H9.6L4.8 4.92578L0 14.5723H3.2V94.9603H86.4V98.1759L96 93.3526Z" fill="#EE8E15"/>
<path d="M96 93.3526L86.4 88.5293V91.7448H79.3152H73.6H70.4H64H60.8H54.4H51.2H44.8H41.6H35.2H32H25.6H22.4H16H12.8V57.3404L6.4 66.5271V14.5723H9.6L4.8 4.92578L0 14.5723H3.2V94.9603H86.4V98.1759L96 93.3526Z" fill="#EE8E15"/>
<path d="M96 93.3526L86.4 88.5293V91.7448H79.3152H73.6H70.4H64H60.8H54.4H51.2H44.8H41.6H35.2H32H25.6H22.4H16H12.8V57.3404L6.4 66.5271V14.5723H9.6L4.8 4.92578L0 14.5723H3.2V94.9603H86.4V98.1759L96 93.3526Z" fill="#3F4B7D"/>
<path d="M96 93.3526L86.4 88.5293V91.7448H79.3152H73.6H70.4H64H60.8H54.4H51.2H44.8H41.6H35.2H32H25.6H22.4H16H12.8V57.3404L6.4 66.5271V14.5723H9.6L4.8 4.92578L0 14.5723H3.2V94.9603H86.4V98.1759L96 93.3526Z" fill="#3F4B7D"/>
</svg>
