<svg width="31" height="31" viewBox="0 0 31 31" fill="none" xmlns="http://www.w3.org/2000/svg">
<path d="M15.5 0C11.3901 0 7.44484 1.63404 4.54102 4.5398C1.63419 7.44672 0.0008052 11.3891 0 15.5C0 19.6092 1.63477 23.5544 4.54102 26.4602C7.44484 29.366 11.3901 31 15.5 31C19.6099 31 23.5552 29.366 26.459 26.4602C29.3652 23.5544 31 19.6092 31 15.5C31 11.3908 29.3652 7.44557 26.459 4.5398C23.5552 1.63404 19.6099 0 15.5 0Z" fill="url(#paint0_linear_1_1527)"/>
<path d="M7.01597 15.3369C11.5352 13.3684 14.548 12.0705 16.0544 11.4435C20.3605 9.65302 21.2542 9.34205 21.8378 9.33151C21.9662 9.32945 22.252 9.36118 22.4385 9.51194C22.5935 9.63909 22.6371 9.81104 22.6589 9.93177C22.6782 10.0524 22.7049 10.3273 22.6831 10.5418C22.4506 12.9928 21.4407 18.9404 20.9272 21.6856C20.7117 22.8471 20.283 23.2366 19.8689 23.2746C18.9679 23.3574 18.285 22.6798 17.4131 22.1085C16.0496 21.2141 15.2794 20.6575 13.9546 19.7849C12.424 18.7765 13.417 18.2221 14.2889 17.3163C14.5165 17.0792 18.4835 13.4718 18.5586 13.1446C18.5683 13.1037 18.578 12.9511 18.486 12.8707C18.3964 12.7901 18.2632 12.8177 18.1663 12.8395C18.0282 12.8705 15.851 14.311 11.6272 17.1608C11.0096 17.5856 10.4502 17.7927 9.94644 17.7818C9.39425 17.7699 8.32863 17.4689 7.53667 17.2117C6.56792 16.8961 5.79534 16.7293 5.86316 16.1933C5.89706 15.9143 6.28214 15.6288 7.01597 15.3369Z" fill="white"/>
<defs>
<linearGradient id="paint0_linear_1_1527" x1="1550" y1="0" x2="1550" y2="3100" gradientUnits="userSpaceOnUse">
<stop stop-color="#2AABEE"/>
<stop offset="1" stop-color="#229ED9"/>
</linearGradient>
</defs>
</svg>
