<svg width="32" height="31" viewBox="0 0 32 31" fill="none" xmlns="http://www.w3.org/2000/svg">
<path d="M1.16171 15.3656C1.16099 17.9788 1.84686 20.5304 3.15104 22.7795L1.03699 30.4638L8.93617 28.4019C11.121 29.586 13.5689 30.2064 16.0565 30.2066H16.063C24.275 30.2066 30.9597 23.554 30.9632 15.3773C30.9648 11.415 29.4163 7.68919 26.6028 4.88608C23.7898 2.08321 20.0486 0.538796 16.0624 0.536987C7.84948 0.536987 1.16523 7.18914 1.16183 15.3656" fill="url(#paint0_linear_1_1534)"/>
<path d="M0.62957 15.3605C0.628723 18.0677 1.33918 20.7106 2.68986 23.0402L0.5 31L8.68243 28.8642C10.9369 30.0879 13.4753 30.7331 16.0582 30.7341H16.0649C24.5715 30.7341 31.4964 23.8422 31.5 15.3728C31.5015 11.2681 29.8972 7.40838 26.9832 4.50485C24.0688 1.60168 20.1938 0.00168775 16.0649 0C7.55686 0 0.632961 6.89084 0.62957 15.3605ZM5.5025 22.639L5.19698 22.1562C3.91266 20.1232 3.23478 17.7738 3.23575 15.3614C3.23841 8.3217 8.99327 2.59431 16.0698 2.59431C19.4967 2.59576 22.7173 3.92571 25.1397 6.33871C27.5619 8.75195 28.8948 11.9599 28.8939 15.3718C28.8908 22.4115 23.1358 28.1396 16.0649 28.1396H16.0598C13.7575 28.1384 11.4994 27.5229 9.5302 26.3596L9.06157 26.083L4.20595 27.3504L5.5025 22.639Z" fill="url(#paint1_linear_1_1534)"/>
<path d="M12.2072 8.93894C11.9183 8.29965 11.6142 8.28675 11.3395 8.27553C11.1145 8.26589 10.8573 8.26661 10.6003 8.26661C10.3431 8.26661 9.92523 8.36294 9.572 8.7469C9.21841 9.13122 8.22205 10.06 8.22205 11.9489C8.22205 13.838 9.60409 15.6635 9.79675 15.92C9.98965 16.1759 12.4648 20.1763 16.3849 21.7153C19.6428 22.9943 20.3057 22.7399 21.0128 22.6758C21.72 22.6119 23.2947 21.7473 23.616 20.8507C23.9375 19.9543 23.9375 19.1859 23.8411 19.0253C23.7447 18.8653 23.4875 18.7692 23.1018 18.5773C22.716 18.3853 20.8199 17.4564 20.4664 17.3283C20.1128 17.2002 19.8558 17.1363 19.5986 17.5208C19.3414 17.9046 18.6028 18.7692 18.3777 19.0253C18.1528 19.282 17.9277 19.3139 17.5421 19.1219C17.1562 18.9292 15.9142 18.5243 14.4406 17.2164C13.2941 16.1987 12.52 14.9419 12.295 14.5575C12.07 14.1736 12.2709 13.9655 12.4643 13.7742C12.6376 13.6022 12.8501 13.3259 13.0432 13.1018C13.2354 12.8775 13.2996 12.7176 13.4282 12.4615C13.557 12.2052 13.4925 11.981 13.3963 11.7889C13.2996 11.5969 12.5502 9.69807 12.2072 8.93894Z" fill="white"/>
<defs>
<linearGradient id="paint0_linear_1_1534" x1="1497.35" y1="2993.22" x2="1497.35" y2="0.536987" gradientUnits="userSpaceOnUse">
<stop stop-color="#1FAF38"/>
<stop offset="1" stop-color="#60D669"/>
</linearGradient>
<linearGradient id="paint1_linear_1_1534" x1="1550.5" y1="3100" x2="1550.5" y2="0" gradientUnits="userSpaceOnUse">
<stop stop-color="#F9F9F9"/>
<stop offset="1" stop-color="white"/>
</linearGradient>
</defs>
</svg>
